<?xml version="1.0" encoding="UTF-8"?>
<svg id="flavours" xmlns="http://www.w3.org/2000/svg" viewBox="0 0 1920 740">
  <path id="yellow" d="M264.04,279.39l-52.68,52.99c-21.61,21.74-58.38,14.51-70.15-13.79h0c-11.77-28.3,9.02-59.48,39.68-59.48h74.72c10.58,0,15.9,12.78,8.44,20.28Zm3.09,8.86l-52.83,52.83c-21.67,21.67-14.34,58.42,14,70.11h0c28.34,11.69,59.45-9.2,59.36-39.85l-.22-74.72c-.03-10.58-12.83-15.86-20.31-8.38Zm63.51-29.15h74.72c30.65,0,51.45,31.17,39.68,59.48h0c-11.77,28.3-48.54,35.53-70.15,13.79l-52.68-52.99c-7.46-7.5-2.15-20.28,8.44-20.28Zm-10.49,29.89l52.09,52.09c21.67,21.67,14.34,58.42-14,70.11h0c-28.34,11.69-59.45-9.2-59.36-39.85l.21-73.67c.03-10.97,13.3-16.44,21.05-8.68Zm10.49-39.3h74.72c30.65,0,51.45-31.17,39.68-59.48h0c-11.77-28.3-48.54-35.53-70.15-13.79l-52.68,52.99c-7.46,7.5-2.15,20.28,8.44,20.28Zm-11.53-29.15l52.83-52.83c21.67-21.67,14.34-58.42-14-70.11h0c-28.34-11.69-59.45,9.2-59.36,39.85l.22,74.72c.03,10.58,12.83,15.86,20.31,8.38Zm-63.51,29.15h-74.72c-30.65,0-51.45-31.17-39.68-59.48h0c11.77-28.3,48.54-35.53,70.15-13.79l52.68,52.99c7.46,7.5,2.15,20.28-8.44,20.28Zm10.49-29.89l-52.09-52.09c-21.67-21.67-14.34-58.42,14-70.11h0c28.34-11.69,59.45,9.2,59.36,39.85l-.21,73.67c-.03,10.97-13.3,16.44-21.05,8.68Zm218.85,31.47v7.06h0c-.1,26.02-5.08,51.21-14.8,74.91-9.54,23.24-23.23,44.07-40.69,61.92-17.53,17.92-38.03,31.98-60.93,41.79-23.74,10.17-49.11,15.32-75.39,15.32s-51.65-5.16-75.39-15.32c-22.9-9.81-43.39-23.87-60.93-41.79-17.46-17.85-31.15-38.68-40.69-61.92-9.83-23.94-14.81-49.42-14.81-75.72v-6.24c0-26.31,4.98-51.78,14.81-75.72,9.54-23.24,23.23-44.07,40.69-61.92,17.53-17.92,38.03-31.98,60.93-41.79,23.74-10.17,49.11-15.32,75.39-15.32s51.65,5.16,75.39,15.32c22.9,9.81,43.39,23.87,60.93,41.79,17.46,17.85,31.15,38.68,40.69,61.92,9.83,23.94,14.81,49.42,14.81,75.72Zm-17.89,6.24v-6.25c0-23.96-4.53-47.15-13.47-68.92-8.66-21.1-21.09-40.01-36.93-56.2-32.63-33.36-76.5-51.73-123.53-51.73s-90.89,18.37-123.53,51.73c-15.84,16.2-28.27,35.11-36.93,56.2-8.94,21.77-13.47,44.96-13.47,68.92,0,0,0,0,0,0v6.24c0,23.96,4.54,47.15,13.48,68.93,8.66,21.1,21.09,40.01,36.93,56.2,32.63,33.36,76.5,51.73,123.53,51.73s90.89-18.37,123.53-51.73c15.84-16.2,28.27-35.11,36.93-56.2,8.94-21.77,13.47-44.97,13.47-68.93Z" style="fill: #e9cb4a;"/>
  <path id="green" d="M694.27,279.39l-52.68,52.99c-21.61,21.74-58.38,14.51-70.15-13.79h0c-11.77-28.3,9.02-59.48,39.68-59.48h74.72c10.58,0,15.9,12.78,8.44,20.28Zm3.09,8.86l-52.83,52.83c-21.67,21.67-14.34,58.42,14,70.11h0c28.34,11.69,59.45-9.2,59.36-39.85l-.22-74.72c-.03-10.58-12.83-15.86-20.31-8.38Zm63.51-29.15h74.72c30.65,0,51.45,31.17,39.68,59.48h0c-11.77,28.3-48.54,35.53-70.15,13.79l-52.68-52.99c-7.46-7.5-2.15-20.28,8.44-20.28Zm-10.49,29.89l52.09,52.09c21.67,21.67,14.34,58.42-14,70.11h0c-28.34,11.69-59.45-9.2-59.36-39.85l.21-73.67c.03-10.97,13.3-16.44,21.05-8.68Zm10.49-39.3h74.72c30.65,0,51.45-31.17,39.68-59.48h0c-11.77-28.3-48.54-35.53-70.15-13.79l-52.68,52.99c-7.46,7.5-2.15,20.28,8.44,20.28Zm-11.53-29.15l52.83-52.83c21.67-21.67,14.34-58.42-14-70.11h0c-28.34-11.69-59.45,9.2-59.36,39.85l.22,74.72c.03,10.58,12.83,15.86,20.31,8.38Zm-63.51,29.15h-74.72c-30.65,0-51.45-31.17-39.68-59.48h0c11.77-28.3,48.54-35.53,70.15-13.79l52.68,52.99c7.46,7.5,2.15,20.28-8.44,20.28Zm10.49-29.89l-52.09-52.09c-21.67-21.67-14.34-58.42,14-70.11h0c28.34-11.69,59.45,9.2,59.36,39.85l-.21,73.67c-.03,10.97-13.3,16.44-21.05,8.68Zm218.85,31.47v7.06h0c-.1,26.02-5.08,51.21-14.8,74.91-9.54,23.24-23.23,44.07-40.69,61.92-17.53,17.92-38.03,31.98-60.93,41.79-23.74,10.17-49.11,15.32-75.39,15.32s-51.65-5.16-75.39-15.32c-22.9-9.81-43.39-23.87-60.93-41.79-17.46-17.85-31.15-38.68-40.69-61.92-9.83-23.94-14.81-49.42-14.81-75.72v-6.24c0-26.31,4.98-51.78,14.81-75.72,9.54-23.24,23.23-44.07,40.69-61.92,17.53-17.92,38.03-31.98,60.93-41.79,23.74-10.17,49.11-15.32,75.39-15.32s51.65,5.16,75.39,15.32c22.9,9.81,43.39,23.87,60.93,41.79,17.46,17.85,31.15,38.68,40.69,61.92,9.83,23.94,14.81,49.42,14.81,75.72Zm-17.89,6.24v-6.25c0-23.96-4.53-47.15-13.47-68.92-8.66-21.1-21.09-40.01-36.93-56.2-32.63-33.36-76.5-51.73-123.53-51.73s-90.89,18.37-123.53,51.73c-15.84,16.2-28.27,35.11-36.93,56.2-8.94,21.77-13.47,44.96-13.47,68.92,0,0,0,0,0,0v6.24c0,23.96,4.54,47.15,13.48,68.93,8.66,21.1,21.09,40.01,36.93,56.2,32.63,33.36,76.5,51.73,123.53,51.73s90.89-18.37,123.53-51.73c15.84-16.2,28.27-35.11,36.93-56.2,8.94-21.77,13.47-44.97,13.47-68.93Z" style="fill: #a9c954;"/>
  <path id="orange" d="M1151.52,279.39l-52.68,52.99c-21.61,21.74-58.38,14.51-70.15-13.79h0c-11.77-28.3,9.02-59.48,39.68-59.48h74.72c10.58,0,15.9,12.78,8.44,20.28Zm3.09,8.86l-52.83,52.83c-21.67,21.67-14.34,58.42,14,70.11h0c28.34,11.69,59.45-9.2,59.36-39.85l-.22-74.72c-.03-10.58-12.83-15.86-20.31-8.38Zm63.51-29.15h74.72c30.65,0,51.45,31.17,39.68,59.48h0c-11.77,28.3-48.54,35.53-70.15,13.79l-52.68-52.99c-7.46-7.5-2.15-20.28,8.44-20.28Zm-10.49,29.89l52.09,52.09c21.67,21.67,14.34,58.42-14,70.11h0c-28.34,11.69-59.45-9.2-59.36-39.85l.21-73.67c.03-10.97,13.3-16.44,21.05-8.68Zm10.49-39.3h74.72c30.65,0,51.45-31.17,39.68-59.48h0c-11.77-28.3-48.54-35.53-70.15-13.79l-52.68,52.99c-7.46,7.5-2.15,20.28,8.44,20.28Zm-11.53-29.15l52.83-52.83c21.67-21.67,14.34-58.42-14-70.11h0c-28.34-11.69-59.45,9.2-59.36,39.85l.22,74.72c.03,10.58,12.83,15.86,20.31,8.38Zm-63.51,29.15h-74.72c-30.65,0-51.45-31.17-39.68-59.48h0c11.77-28.3,48.54-35.53,70.15-13.79l52.68,52.99c7.46,7.5,2.15,20.28-8.44,20.28Zm10.49-29.89l-52.09-52.09c-21.67-21.67-14.34-58.42,14-70.11h0c28.34-11.69,59.45,9.2,59.36,39.85l-.21,73.67c-.03,10.97-13.3,16.44-21.05,8.68Zm218.85,31.47v7.06h0c-.1,26.02-5.08,51.21-14.8,74.91-9.54,23.24-23.23,44.07-40.69,61.92-17.53,17.92-38.03,31.98-60.93,41.79-23.74,10.17-49.11,15.32-75.39,15.32s-51.65-5.16-75.39-15.32c-22.9-9.81-43.39-23.87-60.93-41.79-17.46-17.85-31.15-38.68-40.69-61.92-9.83-23.94-14.81-49.42-14.81-75.72v-6.24c0-26.31,4.98-51.78,14.81-75.72,9.54-23.24,23.23-44.07,40.69-61.92,17.53-17.92,38.03-31.98,60.93-41.79,23.74-10.17,49.11-15.32,75.39-15.32s51.65,5.16,75.39,15.32c22.9,9.81,43.39,23.87,60.93,41.79,17.46,17.85,31.15,38.68,40.69,61.92,9.83,23.94,14.81,49.42,14.81,75.72Zm-17.89,6.24v-6.25c0-23.96-4.53-47.15-13.47-68.92-8.66-21.1-21.09-40.01-36.93-56.2-32.63-33.36-76.5-51.73-123.53-51.73s-90.89,18.37-123.53,51.73c-15.84,16.2-28.27,35.11-36.93,56.2-8.94,21.77-13.47,44.96-13.47,68.92,0,0,0,0,0,0v6.24c0,23.96,4.54,47.15,13.48,68.93,8.66,21.1,21.09,40.01,36.93,56.2,32.63,33.36,76.5,51.73,123.53,51.73s90.89-18.37,123.53-51.73c15.84-16.2,28.27-35.11,36.93-56.2,8.94-21.77,13.47-44.97,13.47-68.93Z" style="fill: #e37a3b;"/>
  <path id="red" d="M1597.51,279.39l-52.68,52.99c-21.61,21.74-58.38,14.51-70.15-13.79h0c-11.77-28.3,9.02-59.48,39.68-59.48h74.72c10.58,0,15.9,12.78,8.44,20.28Zm3.09,8.86l-52.83,52.83c-21.67,21.67-14.34,58.42,14,70.11h0c28.34,11.69,59.45-9.2,59.36-39.85l-.22-74.72c-.03-10.58-12.83-15.86-20.31-8.38Zm63.51-29.15h74.72c30.65,0,51.45,31.17,39.68,59.48h0c-11.77,28.3-48.54,35.53-70.15,13.79l-52.68-52.99c-7.46-7.5-2.15-20.28,8.44-20.28Zm-10.49,29.89l52.09,52.09c21.67,21.67,14.34,58.42-14,70.11h0c-28.34,11.69-59.45-9.2-59.36-39.85l.21-73.67c.03-10.97,13.3-16.44,21.05-8.68Zm10.49-39.3h74.72c30.65,0,51.45-31.17,39.68-59.48h0c-11.77-28.3-48.54-35.53-70.15-13.79l-52.68,52.99c-7.46,7.5-2.15,20.28,8.44,20.28Zm-11.53-29.15l52.83-52.83c21.67-21.67,14.34-58.42-14-70.11h0c-28.34-11.69-59.45,9.2-59.36,39.85l.22,74.72c.03,10.58,12.83,15.86,20.31,8.38Zm-63.51,29.15h-74.72c-30.65,0-51.45-31.17-39.68-59.48h0c11.77-28.3,48.54-35.53,70.15-13.79l52.68,52.99c7.46,7.5,2.15,20.28-8.44,20.28Zm10.49-29.89l-52.09-52.09c-21.67-21.67-14.34-58.42,14-70.11h0c28.34-11.69,59.45,9.2,59.36,39.85l-.21,73.67c-.03,10.97-13.3,16.44-21.05,8.68Zm218.85,31.47v7.06h0c-.1,26.02-5.08,51.21-14.8,74.91-9.54,23.24-23.23,44.07-40.69,61.92-17.53,17.92-38.03,31.98-60.93,41.79-23.74,10.17-49.11,15.32-75.39,15.32s-51.65-5.16-75.39-15.32c-22.9-9.81-43.39-23.87-60.93-41.79-17.46-17.85-31.15-38.68-40.69-61.92-9.83-23.94-14.81-49.42-14.81-75.72v-6.24c0-26.31,4.98-51.78,14.81-75.72,9.54-23.24,23.23-44.07,40.69-61.92,17.53-17.92,38.03-31.98,60.93-41.79,23.74-10.17,49.11-15.32,75.39-15.32s51.65,5.16,75.39,15.32c22.9,9.81,43.39,23.87,60.93,41.79,17.46,17.85,31.15,38.68,40.69,61.92,9.83,23.94,14.81,49.42,14.81,75.72Zm-17.89,6.24v-6.25c0-23.96-4.53-47.15-13.47-68.92-8.66-21.1-21.09-40.01-36.93-56.2-32.63-33.36-76.5-51.73-123.53-51.73s-90.89,18.37-123.53,51.73c-15.84,16.2-28.27,35.11-36.93,56.2-8.94,21.77-13.47,44.96-13.47,68.92,0,0,0,0,0,0v6.24c0,23.96,4.54,47.15,13.48,68.93,8.66,21.1,21.09,40.01,36.93,56.2,32.63,33.36,76.5,51.73,123.53,51.73s90.89-18.37,123.53-51.73c15.84-16.2,28.27-35.11,36.93-56.2,8.94-21.77,13.47-44.97,13.47-68.93Z" style="fill: #db434a;"/>
  <path id="wave" d="M6921.53,319.42c-18.83-14.19-36.16-30.82-56.35-42.66-39.33-23.06-77.45-14.01-111.78,12.08-18.6,14.13-35.65,30.53-52.09,47.18-29.84,30.23-63.65,26.2-93.03-.33-20.4-18.42-39.61-38.61-61.99-54.27-42.04-29.42-80.68-24.03-119.6,4.78-18.45,13.66-34.38,30.71-51.49,46.19-14.82,13.41-31.4,23.97-51.94,24.64-22.01,.71-39.87-10.07-55.89-23.94-19.65-17.03-37.63-36.39-58.87-51.1-42.28-29.27-75.76-25.19-116.06,4.56-18.77,13.86-34.74,31.43-52.33,46.92-14.88,13.11-31.32,23.4-52.16,23.77-21.8,.38-38.81-10.38-54.28-23.98-17.6-15.48-34.06-32.32-52.28-47.01-19-15.31-41.68-25.29-66.11-24.94-24.22,.35-47.08,9.39-65.96,25.14-17.98,15.01-35.57,30.65-52,47.31-29.81,30.23-63.66,26.23-93.04-.29-20.4-18.42-39.6-38.63-61.99-54.27-42.24-29.51-80.72-24.1-119.65,4.8-18.74,13.91-34.83,31.32-52.3,46.96-15.45,13.82-32.79,24.25-54.3,23.88-17.08-.3-31.43-7.2-44.39-17.08v-.78c-1.95-1.34-3.91-2.65-5.87-3.97-.94-.8-1.87-1.61-2.79-2.43-19.39-17.29-38.36-35.14-58.67-51.31-16.77-13.34-37.54-20.22-58.57-20.18-24.3,.05-47.04,9.25-66.04,24.68-17.15,13.94-33.24,29.22-49.15,44.57-1.37,1.33-2.21,3.44-2.71,5.77-.63,.64-1.27,1.27-1.9,1.91-29.84,30.23-63.65,26.2-93.03-.33-20.4-18.42-39.61-38.61-61.99-54.27-42.04-29.42-80.68-24.03-119.6,4.78-18.45,13.66-34.38,30.71-51.49,46.19-14.82,13.41-31.4,23.97-51.93,24.64-22.01,.71-39.87-10.07-55.89-23.94-19.65-17.03-37.63-36.39-58.87-51.1-42.28-29.27-75.76-25.19-116.06,4.56-18.77,13.86-34.74,31.43-52.33,46.92-14.88,13.11-31.32,23.4-52.16,23.77-21.8,.38-38.81-10.38-54.28-23.98-17.6-15.48-34.06-32.32-52.28-47.01-19-15.31-41.68-25.29-66.11-24.94-24.22,.35-47.08,9.39-65.96,25.14-17.98,15.01-35.57,30.65-52,47.31-29.81,30.23-63.66,26.23-93.04-.29-20.4-18.42-39.6-38.63-61.99-54.27-42.24-29.51-80.72-24.1-119.65,4.8-18.74,13.91-34.84,31.32-52.3,46.96-15.45,13.82-32.79,24.25-54.3,23.88-20.97-.36-37.83-10.69-53.05-24.25-19.39-17.29-38.36-35.14-58.67-51.31-16.77-13.34-37.54-20.22-58.57-20.18-24.3,.05-47.04,9.25-66.04,24.68-17.15,13.94-33.24,29.22-49.15,44.57-1.1,1.06-1.85,2.62-2.37,4.39-1.09,1.09-2.18,2.19-3.27,3.28-29.84,30.23-63.66,26.2-93.03-.33-20.4-18.42-39.61-38.61-61.99-54.27-42.04-29.42-80.68-24.03-119.6,4.78-18.45,13.66-34.38,30.71-51.49,46.19-14.82,13.41-31.4,23.97-51.94,24.64-22.01,.71-39.87-10.07-55.89-23.94-19.65-17.03-37.63-36.39-58.87-51.1-42.28-29.27-75.76-25.19-116.06,4.56-18.77,13.86-34.74,31.43-52.33,46.92-14.88,13.11-31.32,23.4-52.16,23.77-21.8,.38-38.81-10.38-54.28-23.98-17.6-15.48-34.06-32.32-52.28-47.01-19-15.31-41.68-25.29-66.11-24.94-24.22,.35-47.08,9.39-65.96,25.14-17.98,15.01-35.57,30.65-52,47.31-29.81,30.23-63.66,26.23-93.04-.29-20.4-18.42-39.6-38.63-61.99-54.27-42.24-29.51-80.72-24.1-119.65,4.8-18.74,13.91-34.84,31.32-52.3,46.96-15.45,13.82-32.79,24.25-54.3,23.88-17.07-.3-31.43-7.2-44.39-17.08v-.78c-1.95-1.34-3.91-2.65-5.87-3.97-.94-.8-1.87-1.61-2.79-2.43-19.39-17.29-38.36-35.14-58.67-51.31-16.77-13.34-37.54-20.22-58.57-20.18-24.3,.05-47.04,9.25-66.04,24.68-17.15,13.94-33.24,29.22-49.15,44.57-1.37,1.33-2.21,3.44-2.71,5.77-.63,.64-1.27,1.27-1.9,1.91-29.84,30.23-63.66,26.2-93.03-.33-20.4-18.42-39.61-38.61-61.99-54.27-42.04-29.42-80.68-24.03-119.6,4.78-18.45,13.66-34.38,30.71-51.49,46.19-14.82,13.41-31.4,23.97-51.93,24.64-22.01,.71-39.87-10.07-55.89-23.94-19.65-17.03-37.63-36.39-58.87-51.1-42.28-29.27-75.76-25.19-116.06,4.56-18.77,13.86-34.74,31.43-52.33,46.92-14.88,13.11-31.32,23.4-52.16,23.77-21.8,.38-38.81-10.38-54.28-23.98-17.6-15.48-34.06-32.32-52.28-47.01-19-15.31-41.68-25.29-66.11-24.94-24.22,.35-47.08,9.39-65.96,25.14-17.98,15.01-35.57,30.65-52,47.31-29.81,30.23-63.66,26.23-93.04-.29-20.4-18.42-39.6-38.63-61.99-54.27-42.24-29.51-80.72-24.1-119.65,4.8-18.74,13.91-34.84,31.32-52.3,46.96-15.45,13.82-32.79,24.25-54.3,23.88-20.97-.36-37.83-10.69-53.05-24.25-19.39-17.29-38.36-35.14-58.67-51.31-16.77-13.34-37.54-20.22-58.57-20.18-24.3,.05-47.04,9.25-66.04,24.68-17.15,13.94-33.24,29.22-49.15,44.57-2.82,2.72-3.39,8.71-3.4,13.19C-.01,447.85,.01,634.15,0,740.46H6947.02V336.99c-8.51-5.84-17.26-11.36-25.49-17.57Z" style="fill: #e37a3b;"/>
</svg>