<?xml version="1.0" encoding="utf-8"?>
<!-- Generator: Adobe Illustrator 26.3.1, SVG Export Plug-In . SVG Version: 6.00 Build 0)  -->
<svg version="1.1" id="flavours" xmlns="http://www.w3.org/2000/svg" xmlns:xlink="http://www.w3.org/1999/xlink" x="0px" y="0px"
	 viewBox="0 0 1920 740" style="enable-background:new 0 0 1920 740;" xml:space="preserve">
<style type="text/css">
	.st0{fill:#E37A3B;}
</style>
<path id="wave" class="st0" d="M6921.5,319.4c-18.8-14.2-36.2-30.8-56.4-42.7c-39.3-23.1-77.5-14-111.8,12.1
	c-18.6,14.1-35.6,30.5-52.1,47.2c-29.8,30.2-63.6,26.2-93-0.3c-20.4-18.4-39.6-38.6-62-54.3c-42-29.4-80.7-24-119.6,4.8
	c-18.5,13.7-34.4,30.7-51.5,46.2c-14.8,13.4-31.4,24-51.9,24.6c-22,0.7-39.9-10.1-55.9-23.9c-19.6-17-37.6-36.4-58.9-51.1
	c-42.3-29.3-75.8-25.2-116.1,4.6c-18.8,13.9-34.7,31.4-52.3,46.9c-14.9,13.1-31.3,23.4-52.2,23.8c-21.8,0.4-38.8-10.4-54.3-24
	c-17.6-15.5-34.1-32.3-52.3-47c-19-15.3-41.7-25.3-66.1-24.9c-24.2,0.4-47.1,9.4-66,25.1c-18,15-35.6,30.6-52,47.3
	c-29.8,30.2-63.7,26.2-93-0.3c-20.4-18.4-39.6-38.6-62-54.3c-42.2-29.5-80.7-24.1-119.6,4.8c-18.7,13.9-34.8,31.3-52.3,47
	c-15.5,13.8-32.8,24.2-54.3,23.9c-17.1-0.3-31.4-7.2-44.4-17.1V337c-2-1.3-3.9-2.6-5.9-4c-0.9-0.8-1.9-1.6-2.8-2.4
	c-19.4-17.3-38.4-35.1-58.7-51.3c-16.8-13.3-37.5-20.2-58.6-20.2c-24.3,0-47,9.2-66,24.7c-17.1,13.9-33.2,29.2-49.1,44.6
	c-1.4,1.3-2.2,3.4-2.7,5.8c-0.6,0.6-1.3,1.3-1.9,1.9c-29.8,30.2-63.6,26.2-93-0.3c-20.4-18.4-39.6-38.6-62-54.3
	c-42-29.4-80.7-24-119.6,4.8c-18.5,13.7-34.4,30.7-51.5,46.2c-14.8,13.4-31.4,24-51.9,24.6c-22,0.7-39.9-10.1-55.9-23.9
	c-19.6-17-37.6-36.4-58.9-51.1c-42.3-29.3-75.8-25.2-116.1,4.6c-18.8,13.9-34.7,31.4-52.3,46.9c-14.9,13.1-31.3,23.4-52.2,23.8
	c-21.8,0.4-38.8-10.4-54.3-24c-17.6-15.5-34.1-32.3-52.3-47c-19-15.3-41.7-25.3-66.1-24.9c-24.2,0.4-47.1,9.4-66,25.1
	c-18,15-35.6,30.6-52,47.3c-29.8,30.2-63.7,26.2-93-0.3c-20.4-18.4-39.6-38.6-62-54.3c-42.2-29.5-80.7-24.1-119.6,4.8
	c-18.7,13.9-34.8,31.3-52.3,47c-15.4,13.8-32.8,24.2-54.3,23.9c-21-0.4-37.8-10.7-53.1-24.2c-19.4-17.3-38.4-35.1-58.7-51.3
	c-16.8-13.3-37.5-20.2-58.6-20.2c-24.3,0-47,9.2-66,24.7c-17.1,13.9-33.2,29.2-49.1,44.6c-1.1,1.1-1.9,2.6-2.4,4.4
	c-1.1,1.1-2.2,2.2-3.3,3.3c-29.8,30.2-63.7,26.2-93-0.3c-20.4-18.4-39.6-38.6-62-54.3c-42-29.4-80.7-24-119.6,4.8
	c-18.4,13.7-34.4,30.7-51.5,46.2c-14.8,13.4-31.4,24-51.9,24.6c-22,0.7-39.9-10.1-55.9-23.9c-19.6-17-37.6-36.4-58.9-51.1
	c-42.3-29.3-75.8-25.2-116.1,4.6c-18.8,13.9-34.7,31.4-52.3,46.9c-14.9,13.1-31.3,23.4-52.2,23.8c-21.8,0.4-38.8-10.4-54.3-24
	c-17.6-15.5-34.1-32.3-52.3-47c-19-15.3-41.7-25.3-66.1-24.9c-24.2,0.4-47.1,9.4-66,25.1c-18,15-35.6,30.6-52,47.3
	c-29.8,30.2-63.7,26.2-93-0.3c-20.4-18.4-39.6-38.6-62-54.3c-42.2-29.5-80.7-24.1-119.6,4.8c-18.7,13.9-34.8,31.3-52.3,47
	c-15.4,13.8-32.8,24.2-54.3,23.9c-17.1-0.3-31.4-7.2-44.4-17.1V337c-1.9-1.3-3.9-2.6-5.9-4c-0.9-0.8-1.9-1.6-2.8-2.4
	c-19.4-17.3-38.4-35.1-58.7-51.3c-16.8-13.3-37.5-20.2-58.6-20.2c-24.3,0-47,9.2-66,24.7c-17.2,13.9-33.2,29.2-49.2,44.6
	c-1.4,1.3-2.2,3.4-2.7,5.8c-0.6,0.6-1.3,1.3-1.9,1.9c-29.8,30.2-63.7,26.2-93-0.3c-20.4-18.4-39.6-38.6-62-54.3
	c-42-29.4-80.7-24-119.6,4.8c-18.4,13.7-34.4,30.7-51.5,46.2c-14.8,13.4-31.4,24-51.9,24.6c-22,0.7-39.9-10.1-55.9-23.9
	c-19.7-17-37.6-36.4-58.9-51.1c-42.3-29.3-75.8-25.2-116.1,4.6c-18.8,13.9-34.7,31.4-52.3,46.9c-14.9,13.1-31.3,23.4-52.2,23.8
	c-21.8,0.4-38.8-10.4-54.3-24c-17.6-15.5-34.1-32.3-52.3-47c-19-15.3-41.7-25.3-66.1-24.9c-24.2,0.4-47.1,9.4-66,25.1
	c-18,15-35.6,30.6-52,47.3c-29.8,30.2-63.7,26.2-93-0.3c-20.4-18.4-39.6-38.6-62-54.3c-42.2-29.5-80.7-24.1-119.6,4.8
	c-18.7,13.9-34.8,31.3-52.3,47c-15.5,13.8-32.8,24.2-54.3,23.9c-21-0.4-37.8-10.7-53.1-24.2c-19.4-17.3-38.4-35.1-58.7-51.3
	c-16.8-13.3-37.5-20.2-58.6-20.2c-24.3,0-47,9.2-66,24.7C35.5,297.7,19.4,313,3.5,328.4c-2.8,2.7-3.4,8.7-3.4,13.2
	C0,447.9,0,634.2,0,740.5h6947V337C6938.5,331.1,6929.8,325.6,6921.5,319.4L6921.5,319.4z"/>
</svg>
