<?xml version="1.0" encoding="UTF-8"?>
<svg id="flavours" xmlns="http://www.w3.org/2000/svg" xmlns:xlink="http://www.w3.org/1999/xlink" viewBox="0 0 480 480">
  <defs>
    <clipPath id="clippath">
      <rect width="480" height="480" style="fill: none;"/>
    </clipPath>
    <clipPath id="clippath-1">
      <rect x="-385" y="115" width="250" height="250" style="fill: none;"/>
    </clipPath>
  </defs>
  <path id="yellow" d="M212.04,258.57l-50.63,50.93c-20.77,20.89-56.12,13.94-67.43-13.26h0c-11.32-27.2,8.67-57.17,38.14-57.17h71.82c10.17,0,15.28,12.28,8.11,19.5Zm2.97,8.52l-50.78,50.78c-20.83,20.83-13.78,56.16,13.46,67.39h0c27.24,11.23,57.14-8.84,57.06-38.31l-.21-71.82c-.03-10.17-12.33-15.24-19.52-8.05Zm61.05-28.01h71.82c29.46,0,49.45,29.96,38.14,57.17h0c-11.32,27.2-46.66,34.15-67.43,13.26l-50.63-50.93c-7.17-7.21-2.06-19.5,8.11-19.5Zm-10.08,28.73l50.07,50.07c20.83,20.83,13.78,56.16-13.46,67.39h0c-27.24,11.23-57.14-8.84-57.06-38.31l.21-70.81c.03-10.54,12.78-15.8,20.24-8.35Zm10.08-37.78h71.82c29.46,0,49.45-29.96,38.14-57.17h0c-11.32-27.2-46.66-34.15-67.43-13.26l-50.63,50.93c-7.17,7.21-2.06,19.5,8.11,19.5Zm-11.08-28.01l50.78-50.78c20.83-20.83,13.78-56.16-13.46-67.39h0c-27.24-11.23-57.14,8.84-57.06,38.31l.21,71.82c.03,10.17,12.33,15.24,19.52,8.05Zm-61.05,28.01h-71.82c-29.46,0-49.45-29.96-38.14-57.17h0c11.32-27.2,46.66-34.15,67.43-13.26l50.63,50.93c7.17,7.21,2.06,19.5-8.11,19.5Zm10.08-28.73l-50.07-50.07c-20.83-20.83-13.78-56.16,13.46-67.39h0c27.24-11.23,57.14,8.84,57.06,38.31l-.21,70.81c-.03,10.54-12.78,15.8-20.24,8.35Zm210.36,30.25v6.79h0c-.1,25.01-4.88,49.23-14.23,72-9.17,22.34-22.33,42.36-39.11,59.52-16.85,17.23-36.56,30.74-58.56,40.17-22.82,9.77-47.2,14.73-72.47,14.73s-49.64-4.96-72.47-14.73c-22.01-9.42-41.71-22.94-58.56-40.17-16.78-17.16-29.94-37.18-39.11-59.52-9.45-23.01-14.24-47.5-14.24-72.79v-6c0-25.29,4.79-49.77,14.24-72.79,9.17-22.34,22.33-42.36,39.11-59.52,16.85-17.23,36.56-30.74,58.56-40.17,22.82-9.77,47.2-14.73,72.47-14.73s49.64,4.96,72.47,14.73c22.01,9.42,41.71,22.94,58.56,40.17,16.78,17.16,29.94,37.18,39.11,59.52,9.45,23.01,14.24,47.5,14.24,72.79Zm-17.2,6v-6.01c0-23.03-4.36-45.32-12.95-66.25-8.33-20.28-20.27-38.46-35.5-54.02-31.37-32.07-73.53-49.73-118.74-49.73s-87.37,17.66-118.74,49.73c-15.23,15.57-27.17,33.75-35.5,54.02-8.59,20.93-12.95,43.22-12.95,66.25,0,0,0,0,0,0v6c0,23.03,4.37,45.33,12.96,66.26,8.33,20.28,20.27,38.46,35.5,54.02,31.37,32.07,73.53,49.73,118.74,49.73s87.37-17.66,118.74-49.73c15.23-15.57,27.17-33.75,35.5-54.02,8.59-20.93,12.95-43.22,12.95-66.26Z" style="fill: #e9cb4a;"/>
  <g style="clip-path: url(#clippath);">
    <path id="wave" d="M5511.31,296.25c-14.99-11.3-28.79-24.54-44.87-33.96-31.32-18.36-61.67-11.16-89,9.62-14.81,11.25-28.39,24.31-41.48,37.57-23.76,24.07-50.69,20.86-74.08-.26-16.24-14.67-31.54-30.74-49.36-43.21-33.47-23.43-64.24-19.14-95.23,3.81-14.69,10.88-27.38,24.45-41,36.78-11.8,10.68-25,19.09-41.35,19.62-17.52,.57-31.75-8.01-44.5-19.07-15.65-13.56-29.96-28.98-46.88-40.69-33.67-23.31-60.32-20.06-92.41,3.63-14.95,11.03-27.66,25.03-41.67,37.36-11.85,10.44-24.94,18.63-41.53,18.92-17.36,.3-30.9-8.27-43.22-19.09-14.02-12.32-27.12-25.74-41.63-37.43-15.13-12.19-33.19-20.14-52.64-19.86-19.29,.28-37.49,7.48-52.52,20.02-14.32,11.95-28.32,24.4-41.41,37.67-23.74,24.07-50.69,20.89-74.08-.23-16.24-14.66-31.53-30.76-49.36-43.21-33.63-23.5-64.27-19.19-95.27,3.82-14.92,11.08-27.74,24.94-41.65,37.39-12.3,11.01-26.11,19.31-43.24,19.02-13.6-.24-25.03-5.73-35.34-13.6v-.62c-1.55-1.06-3.11-2.11-4.68-3.16-.74-.64-1.49-1.28-2.22-1.94-15.44-13.77-30.54-27.98-46.72-40.85-13.35-10.62-29.89-16.1-46.63-16.07-19.35,.04-37.46,7.36-52.58,19.65-13.66,11.1-26.47,23.26-39.14,35.49-1.09,1.06-1.76,2.74-2.16,4.59-.5,.51-1.01,1.01-1.51,1.52-23.76,24.07-50.69,20.86-74.08-.26-16.24-14.67-31.54-30.74-49.36-43.21-33.47-23.43-64.24-19.14-95.23,3.81-14.69,10.88-27.38,24.45-41,36.78-11.8,10.68-25,19.09-41.35,19.62-17.52,.57-31.75-8.01-44.5-19.07-15.65-13.56-29.96-28.98-46.88-40.69-33.67-23.31-60.32-20.06-92.41,3.63-14.95,11.03-27.66,25.03-41.67,37.36-11.85,10.44-24.94,18.63-41.53,18.92-17.36,.3-30.9-8.27-43.22-19.09-14.02-12.32-27.12-25.74-41.63-37.43-15.13-12.19-33.19-20.14-52.64-19.86-19.29,.28-37.49,7.48-52.52,20.02-14.32,11.95-28.32,24.4-41.41,37.67-23.74,24.07-50.69,20.89-74.08-.23-16.24-14.66-31.53-30.76-49.36-43.21-33.63-23.5-64.27-19.19-95.27,3.82-14.92,11.08-27.74,24.94-41.65,37.39-12.3,11.01-26.11,19.31-43.24,19.02-16.69-.29-30.12-8.51-42.24-19.31-15.44-13.77-30.54-27.98-46.72-40.85-13.35-10.62-29.89-16.1-46.63-16.07-19.35,.04-37.46,7.36-52.58,19.65-13.66,11.1-26.47,23.26-39.14,35.49-.87,.84-1.47,2.09-1.88,3.5-.87,.87-1.74,1.74-2.6,2.61-23.76,24.07-50.69,20.86-74.08-.26-16.24-14.67-31.54-30.74-49.36-43.21-33.47-23.43-64.24-19.14-95.23,3.81-14.69,10.88-27.38,24.45-41,36.78-11.8,10.68-25,19.09-41.35,19.62-17.52,.57-31.75-8.01-44.5-19.07-15.65-13.56-29.96-28.98-46.88-40.69-33.67-23.31-60.32-20.06-92.41,3.63-14.95,11.03-27.66,25.03-41.67,37.36-11.85,10.44-24.94,18.63-41.53,18.92-17.36,.3-30.9-8.27-43.22-19.09-14.02-12.32-27.12-25.74-41.63-37.43-15.13-12.19-33.19-20.14-52.64-19.86-19.29,.28-37.49,7.48-52.52,20.02-14.32,11.95-28.32,24.4-41.41,37.67-23.74,24.07-50.69,20.89-74.08-.23-16.24-14.66-31.53-30.76-49.36-43.21-33.63-23.5-64.27-19.19-95.27,3.82-14.92,11.08-27.74,24.94-41.65,37.39-12.3,11.01-26.11,19.31-43.24,19.02-13.6-.24-25.03-5.73-35.34-13.6v-.62c-1.55-1.06-3.11-2.11-4.68-3.16-.75-.64-1.49-1.28-2.22-1.94-15.44-13.77-30.54-27.98-46.72-40.85-13.35-10.62-29.89-16.1-46.63-16.07-19.35,.04-37.46,7.36-52.58,19.65-13.66,11.1-26.47,23.26-39.14,35.49-1.09,1.06-1.76,2.74-2.16,4.59-.5,.51-1.01,1.01-1.51,1.52-23.76,24.07-50.69,20.86-74.08-.26-16.24-14.67-31.54-30.74-49.36-43.21-33.47-23.43-64.24-19.14-95.23,3.81-14.69,10.88-27.38,24.45-41,36.78-11.8,10.68-25,19.09-41.35,19.62-17.52,.57-31.75-8.01-44.5-19.07-15.65-13.56-29.96-28.98-46.88-40.69-33.67-23.31-60.32-20.06-92.41,3.63-14.95,11.03-27.66,25.03-41.67,37.36-11.85,10.44-24.94,18.63-41.53,18.92-17.36,.3-30.9-8.27-43.22-19.09-14.02-12.32-27.12-25.74-41.63-37.43-15.13-12.19-33.19-20.14-52.64-19.86-19.29,.28-37.49,7.48-52.52,20.02-14.32,11.95-28.32,24.4-41.41,37.67-23.74,24.07-50.69,20.89-74.08-.23-16.24-14.66-31.53-30.76-49.36-43.21-33.63-23.5-64.27-19.19-95.27,3.82-14.92,11.08-27.74,24.94-41.65,37.39-12.3,11.01-26.11,19.31-43.24,19.02-16.69-.29-30.12-8.51-42.24-19.31-15.44-13.77-30.54-27.98-46.72-40.85-13.35-10.62-29.89-16.1-46.63-16.07-19.35,.04-37.46,7.36-52.58,19.65-13.66,11.1-26.47,23.26-39.14,35.49-2.24,2.16-2.7,6.93-2.71,10.5C0,398.51,.01,546.85,0,631.5H5531.6V310.24c-6.78-4.65-13.74-9.05-20.3-13.99Z" style="fill: #e37a3b;"/>
  </g>
  <g style="clip-path: url(#clippath-1);">
    <path id="wave-2" data-name="wave" d="M2485.47,269.29c-7.81-5.89-15-12.78-23.37-17.69-16.31-9.56-32.12-5.81-46.36,5.01-7.71,5.86-14.78,12.66-21.6,19.57-12.37,12.54-26.4,10.86-38.58-.14-8.46-7.64-16.43-16.01-25.71-22.51-17.43-12.2-33.46-9.97-49.6,1.98-7.65,5.67-14.26,12.73-21.35,19.15-6.15,5.56-13.02,9.94-21.54,10.22-9.13,.3-16.53-4.17-23.18-9.93-8.15-7.06-15.6-15.09-24.42-21.19-17.54-12.14-31.42-10.45-48.13,1.89-7.78,5.75-14.41,13.04-21.7,19.46-6.17,5.44-12.99,9.7-21.63,9.86-9.04,.16-16.09-4.31-22.51-9.95-7.3-6.42-14.12-13.4-21.68-19.5-7.88-6.35-17.28-10.49-27.42-10.34-10.05,.14-19.53,3.89-27.35,10.43-7.46,6.22-14.75,12.71-21.57,19.62-12.36,12.54-26.4,10.88-38.58-.12-8.46-7.64-16.42-16.02-25.71-22.51-17.52-12.24-33.48-9.99-49.62,1.99-7.77,5.77-14.45,12.99-21.69,19.47-6.41,5.73-13.6,10.06-22.52,9.9-7.08-.12-13.03-2.99-18.41-7.08v-.32c-.81-.55-1.62-1.1-2.44-1.65-.39-.33-.77-.67-1.16-1.01-8.04-7.17-15.91-14.57-24.33-21.28-6.95-5.53-15.57-8.39-24.29-8.37-10.08,.02-19.51,3.84-27.39,10.24-7.11,5.78-13.79,12.12-20.38,18.48-.57,.55-.92,1.42-1.13,2.39-.26,.26-.53,.53-.79,.79-12.37,12.54-26.4,10.86-38.58-.14-8.46-7.64-16.43-16.01-25.71-22.51-17.43-12.2-33.46-9.97-49.6,1.98-7.65,5.67-14.26,12.73-21.35,19.15-6.15,5.56-13.02,9.94-21.54,10.22-9.13,.3-16.53-4.17-23.18-9.93-8.15-7.06-15.6-15.09-24.42-21.19-17.54-12.14-31.42-10.45-48.13,1.89-7.78,5.75-14.41,13.04-21.7,19.46-6.17,5.44-12.99,9.7-21.63,9.86-9.04,.16-16.09-4.31-22.51-9.95-7.3-6.42-14.12-13.4-21.68-19.5-7.88-6.35-17.28-10.49-27.42-10.34-10.05,.14-19.53,3.89-27.35,10.43-7.46,6.22-14.75,12.71-21.57,19.62-12.36,12.54-26.4,10.88-38.58-.12-8.46-7.64-16.42-16.02-25.71-22.51-17.52-12.24-33.48-9.99-49.62,1.99-7.77,5.77-14.45,12.99-21.69,19.47-6.41,5.73-13.6,10.06-22.52,9.9-8.7-.15-15.69-4.43-22-10.06-8.04-7.17-15.91-14.57-24.33-21.28-6.95-5.53-15.57-8.39-24.29-8.37-10.08,.02-19.51,3.84-27.39,10.24-7.11,5.78-13.79,12.12-20.38,18.48-.46,.44-.77,1.09-.98,1.82-.45,.45-.9,.91-1.35,1.36-12.37,12.54-26.4,10.86-38.58-.14-8.46-7.64-16.43-16.01-25.71-22.51-17.43-12.2-33.46-9.97-49.6,1.98-7.65,5.67-14.26,12.73-21.35,19.15-6.15,5.56-13.02,9.94-21.54,10.22-9.13,.3-16.53-4.17-23.18-9.93-8.15-7.06-15.6-15.09-24.42-21.19-17.54-12.14-31.42-10.45-48.13,1.89-7.78,5.75-14.41,13.04-21.7,19.46-6.17,5.44-12.99,9.7-21.63,9.86-9.04,.16-16.09-4.31-22.51-9.95-7.3-6.42-14.12-13.4-21.68-19.5-7.88-6.35-17.28-10.49-27.42-10.34-10.05,.14-19.53,3.89-27.35,10.43-7.46,6.22-14.75,12.71-21.57,19.62-12.36,12.54-26.4,10.88-38.58-.12-8.46-7.64-16.42-16.02-25.71-22.51-17.52-12.24-33.48-9.99-49.62,1.99-7.77,5.77-14.45,12.99-21.69,19.47-6.41,5.73-13.6,10.06-22.52,9.9-7.08-.12-13.03-2.99-18.41-7.08v-.32c-.81-.55-1.62-1.1-2.43-1.65-.39-.33-.77-.67-1.16-1.01-8.04-7.17-15.91-14.57-24.33-21.28-6.95-5.53-15.57-8.39-24.29-8.37-10.08,.02-19.51,3.84-27.39,10.24-7.11,5.78-13.79,12.12-20.38,18.48-.57,.55-.92,1.42-1.13,2.39-.26,.26-.53,.53-.79,.79-12.37,12.54-26.4,10.86-38.58-.14-8.46-7.64-16.43-16.01-25.71-22.51-17.43-12.2-33.46-9.97-49.6,1.98-7.65,5.67-14.26,12.73-21.35,19.15-6.15,5.56-13.02,9.94-21.54,10.22-9.13,.3-16.53-4.17-23.18-9.93-8.15-7.06-15.6-15.09-24.42-21.19-17.54-12.14-31.42-10.45-48.13,1.89-7.78,5.75-14.41,13.04-21.7,19.46-6.17,5.44-12.99,9.7-21.63,9.86-9.04,.16-16.09-4.31-22.51-9.95-7.3-6.42-14.12-13.4-21.68-19.5-7.88-6.35-17.28-10.49-27.42-10.34-10.05,.14-19.53,3.89-27.35,10.43-7.46,6.22-14.75,12.71-21.57,19.62-12.36,12.54-26.4,10.88-38.58-.12-8.46-7.64-16.42-16.02-25.71-22.51-17.52-12.24-33.48-9.99-49.62,1.99-7.77,5.77-14.45,12.99-21.69,19.47-6.41,5.73-13.6,10.06-22.52,9.9-8.7-.15-15.69-4.43-22-10.06-8.04-7.17-15.91-14.57-24.33-21.28-6.95-5.53-15.57-8.39-24.29-8.37-10.08,.02-19.51,3.84-27.39,10.24-7.11,5.78-13.79,12.12-20.38,18.48-1.17,1.13-1.41,3.61-1.41,5.47-.08,44.09-.07,121.35-.08,165.43H2496.04v-167.32c-3.53-2.42-7.16-4.71-10.57-7.29Z" style="fill: #e37a3b;"/>
  </g>
</svg>