<?xml version="1.0" encoding="utf-8"?>
<!-- Generator: Adobe Illustrator 26.3.1, SVG Export Plug-In . SVG Version: 6.00 Build 0)  -->
<svg version="1.1" id="flavours" xmlns="http://www.w3.org/2000/svg" xmlns:xlink="http://www.w3.org/1999/xlink" x="0px" y="0px"
	 viewBox="0 0 250 250" style="enable-background:new 0 0 250 250;" xml:space="preserve">
<style type="text/css">
	.st0{clip-path:url(#SVGID_00000119823365273160746670000003875097659791788982_);}
	.st1{fill:#E37A3B;}
</style>
<g>
	<defs>
		<rect id="SVGID_1_" width="250" height="250"/>
	</defs>
	<clipPath id="SVGID_00000145750512871857271220000000308509396539878820_">
		<use xlink:href="#SVGID_1_"  style="overflow:visible;"/>
	</clipPath>
	<g style="clip-path:url(#SVGID_00000145750512871857271220000000308509396539878820_);">
		<path id="wave" class="st1" d="M2870.5,154.3c-7.8-5.9-15-12.8-23.4-17.7c-16.3-9.6-32.1-5.8-46.4,5c-7.7,5.9-14.8,12.7-21.6,19.6
			c-12.4,12.5-26.4,10.9-38.6-0.1c-8.5-7.6-16.4-16-25.7-22.5c-17.4-12.2-33.5-10-49.6,2c-7.6,5.7-14.3,12.7-21.4,19.1
			c-6.1,5.6-13,9.9-21.5,10.2c-9.1,0.3-16.5-4.2-23.2-9.9c-8.1-7.1-15.6-15.1-24.4-21.2c-17.5-12.1-31.4-10.4-48.1,1.9
			c-7.8,5.8-14.4,13-21.7,19.5c-6.2,5.4-13,9.7-21.6,9.9c-9,0.2-16.1-4.3-22.5-9.9c-7.3-6.4-14.1-13.4-21.7-19.5
			c-7.9-6.4-17.3-10.5-27.4-10.3c-10.1,0.1-19.5,3.9-27.4,10.4c-7.5,6.2-14.8,12.7-21.6,19.6c-12.4,12.5-26.4,10.9-38.6-0.1
			c-8.5-7.6-16.4-16-25.7-22.5c-17.5-12.2-33.5-10-49.6,2c-7.8,5.8-14.4,13-21.7,19.5c-6.4,5.7-13.6,10.1-22.5,9.9
			c-7.1-0.1-13-3-18.4-7.1v-0.3c-0.8-0.6-1.6-1.1-2.4-1.6c-0.4-0.3-0.8-0.7-1.2-1c-8-7.2-15.9-14.6-24.3-21.3
			c-6.9-5.5-15.6-8.4-24.3-8.4c-10.1,0-19.5,3.8-27.4,10.2c-7.1,5.8-13.8,12.1-20.4,18.5c-0.6,0.6-0.9,1.4-1.1,2.4
			c-0.3,0.3-0.5,0.5-0.8,0.8c-12.4,12.5-26.4,10.9-38.6-0.1c-8.5-7.6-16.4-16-25.7-22.5c-17.4-12.2-33.5-10-49.6,2
			c-7.7,5.7-14.3,12.7-21.3,19.1c-6.2,5.6-13,9.9-21.5,10.2c-9.1,0.3-16.5-4.2-23.2-9.9c-8.2-7.1-15.6-15.1-24.4-21.2
			c-17.5-12.1-31.4-10.4-48.1,1.9c-7.8,5.8-14.4,13-21.7,19.5c-6.2,5.4-13,9.7-21.6,9.9c-9,0.2-16.1-4.3-22.5-9.9
			c-7.3-6.4-14.1-13.4-21.7-19.5c-7.9-6.4-17.3-10.5-27.4-10.3c-10.1,0.1-19.5,3.9-27.3,10.4c-7.5,6.2-14.8,12.7-21.6,19.6
			c-12.4,12.5-26.4,10.9-38.6-0.1c-8.5-7.6-16.4-16-25.7-22.5c-17.5-12.2-33.5-10-49.6,2c-7.8,5.8-14.4,13-21.7,19.5
			c-6.4,5.7-13.6,10.1-22.5,9.9c-8.7-0.1-15.7-4.4-22-10.1c-8-7.2-15.9-14.6-24.3-21.3c-6.9-5.5-15.6-8.4-24.3-8.4
			c-10.1,0-19.5,3.8-27.4,10.2c-7.1,5.8-13.8,12.1-20.4,18.5c-0.5,0.4-0.8,1.1-1,1.8c-0.4,0.4-0.9,0.9-1.3,1.4
			c-12.4,12.5-26.4,10.9-38.6-0.1c-8.5-7.6-16.4-16-25.7-22.5c-17.4-12.2-33.5-10-49.6,2c-7.7,5.7-14.3,12.7-21.3,19.1
			c-6.2,5.6-13,9.9-21.5,10.2c-9.1,0.3-16.5-4.2-23.2-9.9c-8.2-7.1-15.6-15.1-24.4-21.2c-17.5-12.1-31.4-10.4-48.1,1.9
			c-7.8,5.8-14.4,13-21.7,19.5c-6.2,5.4-13,9.7-21.6,9.9c-9,0.2-16.1-4.3-22.5-9.9c-7.3-6.4-14.1-13.4-21.7-19.5
			c-7.9-6.4-17.3-10.5-27.4-10.3c-10,0.1-19.5,3.9-27.3,10.4c-7.5,6.2-14.8,12.7-21.6,19.6c-12.4,12.5-26.4,10.9-38.6-0.1
			c-8.5-7.6-16.4-16-25.7-22.5c-17.5-12.2-33.5-10-49.6,2c-7.8,5.8-14.5,13-21.7,19.5c-6.4,5.7-13.6,10.1-22.5,9.9
			c-7.1-0.1-13-3-18.4-7.1v-0.3c-0.8-0.6-1.6-1.1-2.4-1.6c-0.4-0.3-0.8-0.7-1.2-1c-8-7.2-15.9-14.6-24.3-21.3
			c-7-5.5-15.6-8.4-24.3-8.4c-10.1,0-19.5,3.8-27.4,10.2c-7.1,5.8-13.8,12.1-20.4,18.5c-0.6,0.6-0.9,1.4-1.1,2.4
			c-0.3,0.3-0.5,0.5-0.8,0.8c-12.4,12.5-26.4,10.9-38.6-0.1c-8.5-7.6-16.4-16-25.7-22.5c-17.4-12.2-33.5-10-49.6,2
			c-7.7,5.7-14.3,12.7-21.3,19.1c-6.2,5.6-13,9.9-21.5,10.2c-9.1,0.3-16.5-4.2-23.2-9.9c-8.1-7.1-15.6-15.1-24.4-21.2
			c-17.5-12.1-31.4-10.4-48.1,1.9c-7.8,5.8-14.4,13-21.7,19.5c-6.2,5.4-13,9.7-21.6,9.9c-9,0.2-16.1-4.3-22.5-9.9
			c-7.3-6.4-14.1-13.4-21.7-19.5c-7.9-6.4-17.3-10.5-27.4-10.3c-10,0.1-19.5,3.9-27.4,10.4c-7.5,6.2-14.8,12.7-21.6,19.6
			c-12.4,12.5-26.4,10.9-38.6-0.1c-8.5-7.6-16.4-16-25.7-22.5c-17.5-12.2-33.5-10-49.6,2c-7.8,5.8-14.4,13-21.7,19.5
			c-6.4,5.7-13.6,10.1-22.5,9.9c-8.7-0.1-15.7-4.4-22-10.1c-8-7.2-15.9-14.6-24.3-21.3c-6.9-5.5-15.6-8.4-24.3-8.4
			c-10.1,0-19.5,3.8-27.4,10.2c-7.1,5.8-13.8,12.1-20.4,18.5C0.3,159,0,161.5,0,163.4c0,44.2,0,121.5,0,165.5h2881V161.6
			C2877.5,159.2,2873.9,156.9,2870.5,154.3L2870.5,154.3z"/>
	</g>
</g>
</svg>
