<?xml version="1.0" encoding="utf-8"?>
<!-- Generator: Adobe Illustrator 26.3.1, SVG Export Plug-In . SVG Version: 6.00 Build 0)  -->
<svg version="1.1" id="flavours" xmlns="http://www.w3.org/2000/svg" xmlns:xlink="http://www.w3.org/1999/xlink" x="0px" y="0px"
	 viewBox="0 0 480 480" style="enable-background:new 0 0 480 480;" xml:space="preserve">
<style type="text/css">
	.st0{clip-path:url(#SVGID_00000060018467432984350600000017178873285037772692_);}
	.st1{fill:#E37A3B;}
	.st2{clip-path:url(#SVGID_00000041979886111070114820000015839583887407263629_);}
</style>
<g>
	<defs>
		<rect id="SVGID_1_" width="480" height="480"/>
	</defs>
	<clipPath id="SVGID_00000031919109195324989390000016462023819298519960_">
		<use xlink:href="#SVGID_1_"  style="overflow:visible;"/>
	</clipPath>
	<g style="clip-path:url(#SVGID_00000031919109195324989390000016462023819298519960_);">
		<path id="wave" class="st1" d="M5511.3,296.2c-15-11.3-28.8-24.5-44.9-34c-31.3-18.4-61.7-11.2-89,9.6
			c-14.8,11.2-28.4,24.3-41.5,37.6c-23.8,24.1-50.7,20.9-74.1-0.3c-16.2-14.7-31.5-30.7-49.4-43.2c-33.5-23.4-64.2-19.1-95.2,3.8
			c-14.7,10.9-27.4,24.5-41,36.8c-11.8,10.7-25,19.1-41.4,19.6c-17.5,0.6-31.8-8-44.5-19.1c-15.6-13.6-30-29-46.9-40.7
			c-33.7-23.3-60.3-20.1-92.4,3.6c-15,11-27.7,25-41.7,37.4c-11.9,10.4-24.9,18.6-41.5,18.9c-17.4,0.3-30.9-8.3-43.2-19.1
			c-14-12.3-27.1-25.7-41.6-37.4c-15.1-12.2-33.2-20.1-52.6-19.9c-19.3,0.3-37.5,7.5-52.5,20c-14.3,12-28.3,24.4-41.4,37.7
			c-23.7,24.1-50.7,20.9-74.1-0.2c-16.2-14.7-31.5-30.8-49.4-43.2c-33.6-23.5-64.3-19.2-95.3,3.8c-14.9,11.1-27.7,24.9-41.6,37.4
			c-12.3,11-26.1,19.3-43.2,19c-13.6-0.2-25-5.7-35.3-13.6v-0.6c-1.5-1.1-3.1-2.1-4.7-3.2c-0.7-0.6-1.5-1.3-2.2-1.9
			c-15.4-13.8-30.5-28-46.7-40.9c-13.4-10.6-29.9-16.1-46.6-16.1c-19.4,0-37.5,7.4-52.6,19.6c-13.7,11.1-26.5,23.3-39.1,35.5
			c-1.1,1.1-1.8,2.7-2.2,4.6c-0.5,0.5-1,1-1.5,1.5c-23.8,24.1-50.7,20.9-74.1-0.3c-16.2-14.7-31.5-30.7-49.4-43.2
			c-33.5-23.4-64.2-19.1-95.2,3.8c-14.7,10.9-27.4,24.5-41,36.8c-11.8,10.7-25,19.1-41.4,19.6c-17.5,0.6-31.8-8-44.5-19.1
			c-15.6-13.6-30-29-46.9-40.7c-33.7-23.3-60.3-20.1-92.4,3.6c-14.9,11-27.7,25-41.7,37.4c-11.9,10.4-24.9,18.6-41.5,18.9
			c-17.4,0.3-30.9-8.3-43.2-19.1c-14-12.3-27.1-25.7-41.6-37.4c-15.1-12.2-33.2-20.1-52.6-19.9c-19.3,0.3-37.5,7.5-52.5,20
			c-14.3,12-28.3,24.4-41.4,37.7c-23.7,24.1-50.7,20.9-74.1-0.2c-16.2-14.7-31.5-30.8-49.4-43.2c-33.6-23.5-64.3-19.2-95.3,3.8
			c-14.9,11.1-27.7,24.9-41.6,37.4c-12.3,11-26.1,19.3-43.2,19c-16.7-0.3-30.1-8.5-42.2-19.3c-15.4-13.8-30.5-28-46.7-40.9
			c-13.4-10.6-29.9-16.1-46.6-16.1c-19.4,0-37.5,7.4-52.6,19.6c-13.7,11.1-26.5,23.3-39.1,35.5c-0.9,0.8-1.5,2.1-1.9,3.5
			c-0.9,0.9-1.7,1.7-2.6,2.6c-23.8,24.1-50.7,20.9-74.1-0.3c-16.2-14.7-31.5-30.7-49.4-43.2c-33.5-23.4-64.2-19.1-95.2,3.8
			c-14.7,10.9-27.4,24.5-41,36.8c-11.8,10.7-25,19.1-41.4,19.6c-17.5,0.6-31.8-8-44.5-19.1c-15.6-13.6-30-29-46.9-40.7
			c-33.7-23.3-60.3-20.1-92.4,3.6c-14.9,11-27.7,25-41.7,37.4c-11.9,10.4-24.9,18.6-41.5,18.9c-17.4,0.3-30.9-8.3-43.2-19.1
			c-14-12.3-27.1-25.7-41.6-37.4c-15.1-12.2-33.2-20.1-52.6-19.9c-19.3,0.3-37.5,7.5-52.5,20c-14.3,12-28.3,24.4-41.4,37.7
			c-23.7,24.1-50.7,20.9-74.1-0.2c-16.2-14.7-31.5-30.8-49.4-43.2c-33.6-23.5-64.3-19.2-95.3,3.8c-14.9,11.1-27.7,24.9-41.7,37.4
			c-12.3,11-26.1,19.3-43.2,19c-13.6-0.2-25-5.7-35.3-13.6v-0.6c-1.6-1.1-3.1-2.1-4.7-3.2c-0.8-0.6-1.5-1.3-2.2-1.9
			c-15.4-13.8-30.5-28-46.7-40.9c-13.3-10.6-29.9-16.1-46.6-16.1c-19.3,0-37.5,7.4-52.6,19.6c-13.7,11.1-26.5,23.3-39.1,35.5
			c-1.1,1.1-1.8,2.7-2.2,4.6c-0.5,0.5-1,1-1.5,1.5c-23.8,24.1-50.7,20.9-74.1-0.3c-16.2-14.7-31.5-30.7-49.4-43.2
			c-33.5-23.4-64.2-19.1-95.2,3.8c-14.7,10.9-27.4,24.5-41,36.8c-11.8,10.7-25,19.1-41.3,19.6c-17.5,0.6-31.8-8-44.5-19.1
			c-15.7-13.6-30-29-46.9-40.7c-33.7-23.3-60.3-20.1-92.4,3.6c-15,11-27.7,25-41.7,37.4c-11.8,10.4-24.9,18.6-41.5,18.9
			c-17.4,0.3-30.9-8.3-43.2-19.1c-14-12.3-27.1-25.7-41.6-37.4c-15.1-12.2-33.2-20.1-52.6-19.9c-19.3,0.3-37.5,7.5-52.5,20
			c-14.3,12-28.3,24.4-41.4,37.7c-23.7,24.1-50.7,20.9-74.1-0.2c-16.2-14.7-31.5-30.8-49.4-43.2c-33.6-23.5-64.3-19.2-95.3,3.8
			c-14.9,11.1-27.7,24.9-41.6,37.4c-12.3,11-26.1,19.3-43.2,19c-16.7-0.3-30.1-8.5-42.2-19.3c-15.4-13.8-30.5-28-46.7-40.9
			c-13.3-10.6-29.9-16.1-46.6-16.1c-19.3,0-37.5,7.4-52.6,19.6C28.3,279,15.4,291.2,2.8,303.4c-2.2,2.2-2.7,6.9-2.7,10.5
			C0,398.5,0,546.8,0,631.5h5531.6V310.2C5524.8,305.6,5517.9,301.2,5511.3,296.2L5511.3,296.2z"/>
	</g>
</g>
<g>
	<defs>
		<rect id="SVGID_00000102534353702666282760000002866723161953589643_" x="-385" y="115" width="250" height="250"/>
	</defs>
	<clipPath id="SVGID_00000027594889285721363650000014209587484110011778_">
		<use xlink:href="#SVGID_00000102534353702666282760000002866723161953589643_"  style="overflow:visible;"/>
	</clipPath>
	<g style="clip-path:url(#SVGID_00000027594889285721363650000014209587484110011778_);">
		<path id="wave-2" class="st1" d="M2485.5,269.3c-7.8-5.9-15-12.8-23.4-17.7c-16.3-9.6-32.1-5.8-46.4,5
			c-7.7,5.9-14.8,12.7-21.6,19.6c-12.4,12.5-26.4,10.9-38.6-0.1c-8.5-7.6-16.4-16-25.7-22.5c-17.4-12.2-33.5-10-49.6,2
			c-7.6,5.7-14.3,12.7-21.4,19.1c-6.1,5.6-13,9.9-21.5,10.2c-9.1,0.3-16.5-4.2-23.2-9.9c-8.1-7.1-15.6-15.1-24.4-21.2
			c-17.5-12.1-31.4-10.4-48.1,1.9c-7.8,5.8-14.4,13-21.7,19.5c-6.2,5.4-13,9.7-21.6,9.9c-9,0.2-16.1-4.3-22.5-10
			c-7.3-6.4-14.1-13.4-21.7-19.5c-7.9-6.4-17.3-10.5-27.4-10.3c-10.1,0.1-19.5,3.9-27.3,10.4c-7.5,6.2-14.8,12.7-21.6,19.6
			c-12.4,12.5-26.4,10.9-38.6-0.1c-8.5-7.6-16.4-16-25.7-22.5c-17.5-12.2-33.5-10-49.6,2c-7.8,5.8-14.4,13-21.7,19.5
			c-6.4,5.7-13.6,10.1-22.5,9.9c-7.1-0.1-13-3-18.4-7.1v-0.3c-0.8-0.5-1.6-1.1-2.4-1.6c-0.4-0.3-0.8-0.7-1.2-1
			c-8-7.2-15.9-14.6-24.3-21.3c-6.9-5.5-15.6-8.4-24.3-8.4c-10.1,0-19.5,3.8-27.4,10.2c-7.1,5.8-13.8,12.1-20.4,18.5
			c-0.6,0.5-0.9,1.4-1.1,2.4c-0.3,0.3-0.5,0.5-0.8,0.8c-12.4,12.5-26.4,10.9-38.6-0.1c-8.5-7.6-16.4-16-25.7-22.5
			c-17.4-12.2-33.5-10-49.6,2c-7.7,5.7-14.3,12.7-21.3,19.1c-6.2,5.6-13,9.9-21.5,10.2c-9.1,0.3-16.5-4.2-23.2-9.9
			c-8.2-7.1-15.6-15.1-24.4-21.2c-17.5-12.1-31.4-10.4-48.1,1.9c-7.8,5.7-14.4,13-21.7,19.5c-6.2,5.4-13,9.7-21.6,9.9
			c-9,0.2-16.1-4.3-22.5-10c-7.3-6.4-14.1-13.4-21.7-19.5c-7.9-6.4-17.3-10.5-27.4-10.3c-10.1,0.1-19.5,3.9-27.3,10.4
			c-7.5,6.2-14.8,12.7-21.6,19.6c-12.4,12.5-26.4,10.9-38.6-0.1c-8.5-7.6-16.4-16-25.7-22.5c-17.5-12.2-33.5-10-49.6,2
			c-7.8,5.8-14.4,13-21.7,19.5c-6.4,5.7-13.6,10.1-22.5,9.9c-8.7-0.1-15.7-4.4-22-10.1c-8-7.2-15.9-14.6-24.3-21.3
			c-6.9-5.5-15.6-8.4-24.3-8.4c-10.1,0-19.5,3.8-27.4,10.2c-7.1,5.8-13.8,12.1-20.4,18.5c-0.5,0.4-0.8,1.1-1,1.8
			c-0.5,0.5-0.9,0.9-1.3,1.4c-12.4,12.5-26.4,10.9-38.6-0.1c-8.5-7.6-16.4-16-25.7-22.5c-17.4-12.2-33.5-10-49.6,2
			c-7.7,5.7-14.3,12.7-21.3,19.1c-6.2,5.6-13,9.9-21.5,10.2c-9.1,0.3-16.5-4.2-23.2-9.9c-8.2-7.1-15.6-15.1-24.4-21.2
			c-17.5-12.1-31.4-10.4-48.1,1.9c-7.8,5.7-14.4,13-21.7,19.5c-6.2,5.4-13,9.7-21.6,9.9c-9,0.2-16.1-4.3-22.5-10
			c-7.3-6.4-14.1-13.4-21.7-19.5c-7.9-6.4-17.3-10.5-27.4-10.3c-10,0.1-19.5,3.9-27.3,10.4c-7.5,6.2-14.8,12.7-21.6,19.6
			c-12.4,12.5-26.4,10.9-38.6-0.1c-8.5-7.6-16.4-16-25.7-22.5c-17.5-12.2-33.5-10-49.6,2c-7.8,5.8-14.5,13-21.7,19.5
			c-6.4,5.7-13.6,10.1-22.5,9.9c-7.1-0.1-13-3-18.4-7.1v-0.3c-0.8-0.5-1.6-1.1-2.4-1.6c-0.4-0.3-0.8-0.7-1.2-1
			c-8-7.2-15.9-14.6-24.3-21.3c-7-5.5-15.6-8.4-24.3-8.4c-10.1,0-19.5,3.8-27.4,10.2c-7.1,5.8-13.8,12.1-20.4,18.5
			c-0.6,0.5-0.9,1.4-1.1,2.4c-0.3,0.3-0.5,0.5-0.8,0.8c-12.4,12.5-26.4,10.9-38.6-0.1c-8.5-7.6-16.4-16-25.7-22.5
			c-17.4-12.2-33.5-10-49.6,2c-7.6,5.7-14.3,12.7-21.4,19.1c-6.1,5.6-13,9.9-21.5,10.2c-9.1,0.3-16.5-4.2-23.2-9.9
			c-8.2-7.1-15.6-15.1-24.4-21.2c-17.5-12.1-31.4-10.4-48.1,1.9c-7.8,5.8-14.4,13-21.7,19.5c-6.2,5.4-13,9.7-21.6,9.9
			c-9,0.2-16.1-4.3-22.5-10c-7.3-6.4-14.1-13.4-21.7-19.5c-7.9-6.4-17.3-10.5-27.4-10.3c-10.1,0.1-19.5,3.9-27.3,10.4
			c-7.5,6.2-14.8,12.7-21.6,19.6c-12.4,12.5-26.4,10.9-38.6-0.1c-8.5-7.6-16.4-16-25.7-22.5c-17.5-12.2-33.5-10-49.6,2
			c-7.8,5.8-14.4,13-21.7,19.5c-6.4,5.7-13.6,10.1-22.5,9.9c-8.7-0.1-15.7-4.4-22-10.1c-8-7.2-15.9-14.6-24.3-21.3
			c-7-5.5-15.6-8.4-24.3-8.4c-10.1,0-19.5,3.8-27.4,10.2c-7.1,5.8-13.8,12.1-20.4,18.5c-1.2,1.1-1.4,3.6-1.4,5.5
			c-0.1,44.1-0.1,121.4-0.1,165.4H2496V276.5c-3.5-2.4-7.2-4.7-10.6-7.3V269.3z"/>
	</g>
</g>
</svg>
