<?xml version="1.0" encoding="UTF-8"?>
<svg id="flavours" xmlns="http://www.w3.org/2000/svg" xmlns:xlink="http://www.w3.org/1999/xlink" viewBox="0 0 250 250">
  <defs>
    <clipPath id="clippath">
      <rect y="0" width="250" height="250" style="fill: none;"/>
    </clipPath>
  </defs>
  <path id="yellow" d="M110.44,134.67l-26.37,26.53c-10.82,10.88-29.23,7.26-35.12-6.91h0c-5.89-14.17,4.52-29.78,19.86-29.78h37.4c5.3,0,7.96,6.4,4.22,10.15Zm1.55,4.44l-26.45,26.45c-10.85,10.85-7.18,29.25,7.01,35.1h0c14.19,5.85,29.76-4.61,29.72-19.95l-.11-37.4c-.02-5.3-6.42-7.94-10.17-4.19Zm31.8-14.59h37.4c15.35,0,25.76,15.61,19.86,29.78h0c-5.89,14.17-24.3,17.79-35.12,6.91l-26.37-26.53c-3.74-3.76-1.07-10.15,4.22-10.15Zm-5.25,14.96l26.08,26.08c10.85,10.85,7.18,29.25-7.01,35.1h0c-14.19,5.85-29.76-4.61-29.72-19.95l.11-36.88c.02-5.49,6.66-8.23,10.54-4.35Zm5.25-19.68h37.4c15.35,0,25.76-15.61,19.86-29.78h0c-5.89-14.17-24.3-17.79-35.12-6.91l-26.37,26.53c-3.74,3.76-1.07,10.15,4.22,10.15Zm-5.77-14.59l26.45-26.45c10.85-10.85,7.18-29.25-7.01-35.1h0c-14.19-5.85-29.76,4.61-29.72,19.95l.11,37.4c.02,5.3,6.42,7.94,10.17,4.19Zm-31.8,14.59h-37.4c-15.35,0-25.76-15.61-19.86-29.78h0c5.89-14.17,24.3-17.79,35.12-6.91l26.37,26.53c3.74,3.76,1.07,10.15-4.22,10.15Zm5.25-14.96l-26.08-26.08c-10.85-10.85-7.18-29.25,7.01-35.1h0c14.19-5.85,29.76,4.61,29.72,19.95l-.11,36.88c-.02,5.49-6.66,8.23-10.54,4.35Zm109.56,15.76v3.53h0c-.05,13.02-2.54,25.64-7.41,37.5-4.78,11.63-11.63,22.06-20.37,31-8.78,8.97-19.04,16.01-30.5,20.92-11.89,5.09-24.59,7.67-37.74,7.67s-25.86-2.58-37.74-7.67c-11.46-4.91-21.72-11.95-30.5-20.92-8.74-8.94-15.6-19.37-20.37-31-4.92-11.99-7.42-24.74-7.42-37.91v-3.13c0-13.17,2.5-25.92,7.42-37.91,4.78-11.63,11.63-22.06,20.37-31,8.78-8.97,19.04-16.01,30.5-20.92,11.89-5.09,24.59-7.67,37.74-7.67s25.86,2.58,37.74,7.67c11.46,4.91,21.72,11.95,30.5,20.92,8.74,8.94,15.6,19.37,20.37,31,4.92,11.99,7.42,24.74,7.42,37.91Zm-8.96,3.13v-3.13c0-12-2.27-23.6-6.75-34.5-4.34-10.56-10.56-20.03-18.49-28.14-16.34-16.7-38.3-25.9-61.84-25.9s-45.5,9.2-61.84,25.9c-7.93,8.11-14.15,17.58-18.49,28.14-4.48,10.9-6.74,22.51-6.75,34.5h0v3.13c0,12,2.27,23.61,6.75,34.51,4.34,10.56,10.56,20.03,18.49,28.14,16.34,16.7,38.3,25.9,61.84,25.9s45.5-9.2,61.84-25.9c7.93-8.11,14.15-17.58,18.49-28.14,4.48-10.9,6.75-22.51,6.75-34.51Z" style="fill: #e9cb4a;"/>
  <g style="clip-path: url(#clippath);">
    <path id="wave" d="M2870.47,154.29c-7.81-5.89-15-12.78-23.37-17.69-16.31-9.56-32.12-5.81-46.36,5.01-7.71,5.86-14.78,12.66-21.6,19.57-12.37,12.54-26.4,10.86-38.58-.14-8.46-7.64-16.43-16.01-25.71-22.51-17.43-12.2-33.46-9.97-49.6,1.98-7.65,5.67-14.26,12.73-21.35,19.15-6.15,5.56-13.02,9.94-21.54,10.22-9.13,.3-16.53-4.17-23.18-9.93-8.15-7.06-15.6-15.09-24.42-21.19-17.54-12.14-31.42-10.45-48.13,1.89-7.78,5.75-14.41,13.04-21.7,19.46-6.17,5.44-12.99,9.7-21.63,9.86-9.04,.16-16.09-4.31-22.51-9.95-7.3-6.42-14.12-13.4-21.68-19.5-7.88-6.35-17.28-10.49-27.42-10.34-10.05,.14-19.53,3.89-27.35,10.43-7.46,6.22-14.75,12.71-21.57,19.62-12.36,12.54-26.4,10.88-38.58-.12-8.46-7.64-16.42-16.02-25.71-22.51-17.52-12.24-33.48-9.99-49.62,1.99-7.77,5.77-14.45,12.99-21.69,19.47-6.41,5.73-13.6,10.06-22.52,9.9-7.08-.12-13.03-2.99-18.41-7.08v-.32c-.81-.55-1.62-1.1-2.44-1.65-.39-.33-.77-.67-1.16-1.01-8.04-7.17-15.91-14.57-24.33-21.28-6.95-5.53-15.57-8.39-24.29-8.37-10.08,.02-19.51,3.84-27.39,10.24-7.11,5.78-13.79,12.12-20.38,18.48-.57,.55-.92,1.42-1.13,2.39-.26,.26-.53,.53-.79,.79-12.37,12.54-26.4,10.86-38.58-.14-8.46-7.64-16.43-16.01-25.71-22.51-17.43-12.2-33.46-9.97-49.6,1.98-7.65,5.67-14.26,12.73-21.35,19.15-6.15,5.56-13.02,9.94-21.54,10.22-9.13,.3-16.53-4.17-23.18-9.93-8.15-7.06-15.6-15.09-24.42-21.19-17.54-12.14-31.42-10.45-48.13,1.89-7.78,5.75-14.41,13.04-21.7,19.46-6.17,5.44-12.99,9.7-21.63,9.86-9.04,.16-16.09-4.31-22.51-9.95-7.3-6.42-14.12-13.4-21.68-19.5-7.88-6.35-17.28-10.49-27.42-10.34-10.05,.14-19.53,3.89-27.35,10.43-7.46,6.22-14.75,12.71-21.57,19.62-12.36,12.54-26.4,10.88-38.58-.12-8.46-7.64-16.42-16.02-25.71-22.51-17.52-12.24-33.48-9.99-49.62,1.99-7.77,5.77-14.45,12.99-21.69,19.47-6.41,5.73-13.6,10.06-22.52,9.9-8.7-.15-15.69-4.43-22-10.06-8.04-7.17-15.91-14.57-24.33-21.28-6.95-5.53-15.57-8.39-24.29-8.37-10.08,.02-19.51,3.84-27.39,10.24-7.11,5.78-13.79,12.12-20.38,18.48-.46,.44-.77,1.09-.98,1.82-.45,.45-.9,.91-1.35,1.36-12.37,12.54-26.4,10.86-38.58-.14-8.46-7.64-16.43-16.01-25.71-22.51-17.43-12.2-33.46-9.97-49.6,1.98-7.65,5.67-14.26,12.73-21.35,19.15-6.15,5.56-13.02,9.94-21.54,10.22-9.13,.3-16.53-4.17-23.18-9.93-8.15-7.06-15.6-15.09-24.42-21.19-17.54-12.14-31.42-10.45-48.13,1.89-7.78,5.75-14.41,13.04-21.7,19.46-6.17,5.44-12.99,9.7-21.63,9.86-9.04,.16-16.09-4.31-22.51-9.95-7.3-6.42-14.12-13.4-21.68-19.5-7.88-6.35-17.28-10.49-27.42-10.34-10.05,.14-19.53,3.89-27.35,10.43-7.46,6.22-14.75,12.71-21.57,19.62-12.36,12.54-26.4,10.88-38.58-.12-8.46-7.64-16.42-16.02-25.71-22.51-17.52-12.24-33.48-9.99-49.62,1.99-7.77,5.77-14.45,12.99-21.69,19.47-6.41,5.73-13.6,10.06-22.52,9.9-7.08-.12-13.03-2.99-18.41-7.08v-.32c-.81-.55-1.62-1.1-2.43-1.65-.39-.33-.77-.67-1.16-1.01-8.04-7.17-15.91-14.57-24.33-21.28-6.95-5.53-15.57-8.39-24.29-8.37-10.08,.02-19.51,3.84-27.39,10.24-7.11,5.78-13.79,12.12-20.38,18.48-.57,.55-.92,1.42-1.13,2.39-.26,.26-.53,.53-.79,.79-12.37,12.54-26.4,10.86-38.58-.14-8.46-7.64-16.43-16.01-25.71-22.51-17.43-12.2-33.46-9.97-49.6,1.98-7.65,5.67-14.26,12.73-21.35,19.15-6.15,5.56-13.02,9.94-21.54,10.22-9.13,.3-16.53-4.17-23.18-9.93-8.15-7.06-15.6-15.09-24.42-21.19-17.54-12.14-31.42-10.45-48.13,1.89-7.78,5.75-14.41,13.04-21.7,19.46-6.17,5.44-12.99,9.7-21.63,9.86-9.04,.16-16.09-4.31-22.51-9.95-7.3-6.42-14.12-13.4-21.68-19.5-7.88-6.35-17.28-10.49-27.42-10.34-10.05,.14-19.53,3.89-27.35,10.43-7.46,6.22-14.75,12.71-21.57,19.62-12.36,12.54-26.4,10.88-38.58-.12-8.46-7.64-16.42-16.02-25.71-22.51-17.52-12.24-33.48-9.99-49.62,1.99-7.77,5.77-14.45,12.99-21.69,19.47-6.41,5.73-13.6,10.06-22.52,9.9-8.7-.15-15.69-4.43-22-10.06-8.04-7.17-15.91-14.57-24.33-21.28-6.95-5.53-15.57-8.39-24.29-8.37-10.08,.02-19.51,3.84-27.39,10.24-7.11,5.78-13.79,12.12-20.38,18.48-1.17,1.13-1.41,3.61-1.41,5.47C0,207.56,0,284.82,0,328.9H2881.04V161.58c-3.53-2.42-7.16-4.71-10.57-7.29Z" style="fill: #cf6136;"/>
  </g>
</svg>