<?xml version="1.0" encoding="utf-8"?>
<!-- Generator: Adobe Illustrator 26.3.1, SVG Export Plug-In . SVG Version: 6.00 Build 0)  -->
<svg version="1.1" id="iconSocialMedia" xmlns="http://www.w3.org/2000/svg" xmlns:xlink="http://www.w3.org/1999/xlink" x="0px"
	 y="0px" viewBox="0 0 48 48" style="enable-background:new 0 0 48 48;" xml:space="preserve">
<style type="text/css">
	.st0{fill:#F5F5F5;}
	.st1{fill:#6BC3E3;}
</style>
<g id="instagram-icon">
	<path class="st0" d="M48,23.7c0,13.3-10.7,24-24,24S0,37,0,23.7s10.7-24,24-24S48,10.4,48,23.7z"/>
	<path id="white" class="st1" d="M34.3,10.8H16c-3.2,0-5.7,2.3-5.7,5.1V32c0,2.8,2.6,5.1,5.7,5.1h18.2c3.2,0,5.7-2.3,5.7-5.1V15.9
		C40,13.1,37.4,10.8,34.3,10.8z M35.9,13.9h0.7v4.5h-5.1v-4.5H35.9z M20.9,21.2c1.7-2.1,5-2.5,7.3-1c2.4,1.5,2.9,4.4,1.2,6.5
		c-1.7,2.1-5,2.5-7.3,1c-1.4-0.9-2.2-2.3-2.2-3.8C19.9,23,20.3,22,20.9,21.2z M37.1,32c0,1.4-1.3,2.5-2.9,2.5H16
		c-1.6,0-2.9-1.1-2.9-2.5l0,0V21.2h4.5c-1.7,3.7,0.3,7.9,4.5,9.4s8.9-0.3,10.6-3.9c0.4-0.9,0.6-1.7,0.6-2.7s-0.2-1.8-0.6-2.7h4.5V32
		z"/>
</g>
</svg>
