<?xml version="1.0" encoding="UTF-8"?>
<svg id="newLogo_quatro-fruit" xmlns="http://www.w3.org/2000/svg" viewBox="0 0 1151.9 464.18">
  <path id="yellow" d="M154.1,271.01H79.38c-30.65,0-51.45,31.17-39.68,59.48h0c11.77,28.3,48.54,35.53,70.15,13.79l52.68-52.99c7.46-7.5,2.15-20.28-8.44-20.28Z" style="fill: #e9cb4a;"/>
  <path id="green" d="M165.63,300.15l-52.83,52.83c-21.67,21.67-14.34,58.42,14,70.11h0c28.34,11.69,59.45-9.2,59.36-39.85l-.22-74.72c-.03-10.58-12.83-15.86-20.31-8.38Z" style="fill: #a9c954;"/>
  <path id="red" d="M156.09,198.55c-7.4,3.92-15.38,6.97-23.93,9.15-8.56,2.18-17.34,3.28-26.36,3.28-14.57,0-28.33-2.76-41.28-8.29-12.95-5.52-24.17-13-33.65-22.44-9.48-9.44-17-20.6-22.55-33.49C2.78,133.86,0,120.16,0,105.66s2.78-28.2,8.33-41.09c5.55-12.89,13.06-24.11,22.55-33.67,9.48-9.55,20.69-17.09,33.65-22.62C77.46,2.76,91.22,0,105.79,0s28.32,2.76,41.28,8.29c12.95,5.52,24.22,13.07,33.82,22.62,9.59,9.55,17.17,20.78,22.72,33.67,5.55,12.9,8.32,26.59,8.32,41.09,0,9.67-1.21,18.88-3.64,27.62-2.43,8.75-5.84,16.92-10.23,24.52l3.47,3.45c3,2.99,5.2,6.21,6.59,9.67s2.08,6.91,2.08,10.36c0,3.92-.81,7.66-2.43,11.22-1.62,3.57-3.82,6.73-6.59,9.5s-5.96,4.95-9.54,6.56c-3.59,1.61-7.34,2.42-11.27,2.42-7.4,0-14.11-2.88-20.12-8.63l-4.16-3.8ZM58.27,106.35c0,6.68,1.21,12.89,3.64,18.65,2.43,5.76,5.84,10.82,10.23,15.19,4.39,4.38,9.48,7.77,15.26,10.19,5.78,2.42,12.02,3.63,18.73,3.63,3,0,4.74-.11,5.2-.35l-17.34-17.26c-5.78-5.98-8.67-12.66-8.67-20.03,0-3.91,.81-7.65,2.43-11.22,1.62-3.57,3.82-6.73,6.59-9.5s5.95-4.95,9.54-6.56c3.58-1.61,7.34-2.42,11.27-2.42,3.47,0,6.94,.69,10.41,2.07,3.47,1.38,6.7,3.57,9.71,6.56l18.38,18.3c.23-1.15,.4-2.36,.52-3.63,.11-1.26,.17-2.47,.17-3.63,0-6.67-1.27-12.95-3.82-18.82-2.55-5.87-5.96-10.93-10.23-15.19-4.28-4.26-9.37-7.65-15.26-10.19-5.9-2.53-12.2-3.8-18.9-3.8s-12.95,1.27-18.73,3.8c-5.78,2.54-10.87,5.93-15.26,10.19-4.4,4.26-7.8,9.32-10.23,15.19-2.43,5.87-3.64,12.14-3.64,18.82Zm342,12.43c0,60.55-27.75,90.81-83.25,90.81s-84.63-30.27-84.63-90.81V31.77c0-9.2,2.83-16.23,8.5-21.06,5.66-4.83,12.31-7.25,19.94-7.25s14.62,2.42,20.29,7.25c5.66,4.83,8.5,11.86,8.5,21.06V127.41c0,17.04,8.9,25.55,26.71,25.55s26.71-8.51,26.71-25.55V31.77c0-9.2,2.83-16.23,8.5-21.06,5.66-4.83,12.31-7.25,19.94-7.25s14.62,2.42,20.29,7.25c5.66,4.83,8.5,11.86,8.5,21.06V118.78Zm142.56,50.76h-61.39l-8.67,22.1c-2.55,6.45-6.07,11.11-10.58,13.98-4.51,2.88-9.42,4.32-14.74,4.32-3.93,0-7.69-.63-11.27-1.9-3.59-1.26-6.88-3.11-9.89-5.52-3.01-2.42-5.38-5.23-7.11-8.46-1.73-3.22-2.6-6.91-2.6-11.05s.81-7.94,2.43-11.39L487.33,21.41c3-6.44,7.05-11.28,12.14-14.5,5.08-3.22,10.29-4.83,15.61-4.83s10.46,1.61,15.44,4.83c4.97,3.23,8.73,8.06,11.27,14.5l62.78,150.2c1.61,3.45,2.43,7.25,2.43,11.39,0,3.92-.87,7.54-2.6,10.88-1.73,3.34-4.11,6.22-7.11,8.63-3.01,2.42-6.36,4.26-10.06,5.52-3.7,1.27-7.4,1.9-11.1,1.9-5.32,0-10.29-1.44-14.91-4.32-4.63-2.88-8.1-7.54-10.41-13.98l-7.98-22.1Zm-43.36-44.89h27.75l-12.83-36.95-14.91,36.95Zm196.32,56.28c0,9.21-2.83,16.23-8.5,21.06-5.67,4.83-12.43,7.25-20.29,7.25s-14.28-2.42-19.94-7.25c-5.67-4.83-8.5-11.85-8.5-21.06V60.43h-20.12c-9.02,0-16.07-2.82-21.16-8.46-5.09-5.64-7.63-12.37-7.63-20.2s2.54-14.56,7.63-20.2c5.08-5.64,12.14-8.46,21.16-8.46h96.77c9.02,0,16.07,2.82,21.16,8.46,5.08,5.64,7.63,12.38,7.63,20.2s-2.55,14.56-7.63,20.2c-5.09,5.64-12.14,8.46-21.16,8.46h-19.42v120.51Zm137.36-44.2c-5.78-7.82-8.67-16.11-8.67-24.86,0-5.52,1.04-9.72,3.12-12.6,2.08-2.88,4.74-5.06,7.98-6.56,3.24-1.5,6.7-2.53,10.41-3.11,3.7-.57,7.16-1.38,10.41-2.42,3.24-1.04,6.01-2.59,8.32-4.66,2.31-2.07,3.58-5.29,3.82-9.67,0-10.36-6.02-15.54-18.04-15.54h-30.87v122.93c0,19.57-9.6,29.35-28.79,29.35-9.71,0-16.94-2.47-21.68-7.42-4.74-4.95-7.11-12.03-7.11-21.24V31.77c0-19.1,9.25-28.66,27.75-28.66h61.74c12.02,0,22.49,1.79,31.39,5.35,8.9,3.57,16.24,8.29,22.03,14.16,5.78,5.87,10.06,12.55,12.83,20.03,2.78,7.48,4.16,15.14,4.16,22.96,0,11.74-2.95,22.79-8.84,33.15-5.9,10.36-14.63,18.19-26.19,23.48l24.63,39.02c3.7,5.99,5.55,12.09,5.55,18.3,0,4.14-.81,8.06-2.43,11.74-1.62,3.68-3.76,6.91-6.42,9.67-2.66,2.76-5.72,4.89-9.19,6.39-3.47,1.5-7.06,2.24-10.75,2.24-4.16,0-8.27-1.21-12.31-3.63-4.05-2.42-7.58-6.27-10.58-11.57l-32.26-57.66Zm106.83-31.08c0-14.5,2.78-28.2,8.33-41.09,5.55-12.89,13.06-24.11,22.55-33.67,9.48-9.55,20.69-17.09,33.65-22.62,12.95-5.52,26.71-8.29,41.28-8.29s28.32,2.76,41.28,8.29c12.95,5.52,24.22,13.07,33.82,22.62,9.59,9.55,17.17,20.78,22.72,33.67,5.55,12.9,8.32,26.59,8.32,41.09s-2.78,28.2-8.32,41.09c-5.55,12.89-13.13,24.06-22.72,33.49-9.6,9.44-20.87,16.92-33.82,22.44-12.95,5.53-26.71,8.29-41.28,8.29s-28.33-2.76-41.28-8.29c-12.95-5.52-24.17-13-33.65-22.44-9.48-9.44-17-20.6-22.55-33.49-5.55-12.89-8.33-26.59-8.33-41.09Zm58.27,.69c0,6.68,1.21,12.89,3.64,18.65,2.43,5.76,5.84,10.82,10.23,15.19,4.39,4.38,9.48,7.77,15.26,10.19,5.78,2.42,12.02,3.63,18.73,3.63s13.01-1.21,18.9-3.63c5.9-2.42,10.98-5.81,15.26-10.19,4.28-4.37,7.69-9.44,10.23-15.19,2.54-5.75,3.82-11.97,3.82-18.65s-1.27-12.95-3.82-18.82c-2.55-5.87-5.96-10.93-10.23-15.19-4.28-4.26-9.37-7.65-15.26-10.19-5.9-2.53-12.2-3.8-18.9-3.8s-12.95,1.27-18.73,3.8c-5.78,2.54-10.87,5.93-15.26,10.19-4.4,4.26-7.8,9.32-10.23,15.19-2.43,5.87-3.64,12.14-3.64,18.82ZM267.01,448.85c22.9-9.81,43.39-23.87,60.93-41.79,17.46-17.85,31.15-38.68,40.69-61.92,8.66-21.09,13.56-43.36,14.6-66.35,.23-5.1-3.83-9.37-8.94-9.37h0c-4.78,0-8.72,3.75-8.93,8.52-.95,20.94-5.4,41.22-13.28,60.41-8.66,21.1-21.09,40.01-36.93,56.2-32.63,33.36-76.5,51.73-123.53,51.73s-90.89-18.37-123.53-51.73c-15.84-16.2-28.27-35.11-36.93-56.2-7.88-19.18-12.33-39.47-13.28-60.41-.22-4.77-4.16-8.52-8.93-8.52h0c-5.11,0-9.17,4.27-8.94,9.37,1.05,22.99,5.94,45.27,14.6,66.35,9.54,23.24,23.23,44.07,40.69,61.92,17.53,17.92,38.03,31.98,60.93,41.79,23.74,10.17,49.11,15.32,75.39,15.32s51.65-5.16,75.39-15.32Zm-46.31-157.56l52.68,52.99c21.61,21.74,58.38,14.51,70.15-13.79h0c11.77-28.3-9.02-59.48-39.68-59.48h-74.72c-10.58,0-15.9,12.78-8.44,20.28Z" style="fill: #db434a;"/>
  <path id="orange" d="M482.64,437.15c0,8.69-2.66,15.31-7.98,19.87-5.32,4.56-11.56,6.84-18.73,6.84s-13.41-2.28-18.73-6.84c-5.32-4.56-7.98-11.18-7.98-19.87v-140.69c0-18.02,8.9-27.03,26.71-27.03h91.19c8.47,0,15.09,2.66,19.87,7.98,4.77,5.32,7.16,11.67,7.16,19.05s-2.39,13.73-7.16,19.05c-4.78,5.32-11.4,7.98-19.87,7.98h-64.48v16.28h51.46c8.47,0,15.09,2.66,19.87,7.98,4.77,5.32,7.16,11.67,7.16,19.05s-2.39,13.74-7.16,19.05c-4.78,5.32-11.4,7.98-19.87,7.98h-51.46v43.32Zm172.94-41.69c-5.43-7.38-8.14-15.2-8.14-23.45,0-5.21,.98-9.17,2.93-11.89,1.95-2.71,4.45-4.77,7.49-6.19,3.04-1.41,6.29-2.39,9.77-2.93,3.47-.54,6.73-1.3,9.77-2.28,3.04-.98,5.64-2.44,7.82-4.4,2.17-1.95,3.36-4.99,3.58-9.12,0-9.77-5.65-14.66-16.94-14.66h-28.99v115.94c0,18.46-9.01,27.68-27.03,27.68-9.12,0-15.91-2.33-20.35-7-4.45-4.67-6.68-11.34-6.68-20.03v-140.69c0-18.02,8.68-27.03,26.05-27.03h57.97c11.29,0,21.11,1.68,29.47,5.05,8.36,3.37,15.25,7.82,20.68,13.35,5.42,5.54,9.44,11.84,12.05,18.89,2.61,7.06,3.91,14.28,3.91,21.66,0,11.07-2.77,21.49-8.3,31.27-5.54,9.77-13.74,17.15-24.59,22.15l23.12,36.8c3.47,5.65,5.21,11.4,5.21,17.26,0,3.91-.76,7.6-2.28,11.07-1.52,3.48-3.53,6.51-6.02,9.12-2.5,2.6-5.37,4.62-8.63,6.02-3.26,1.41-6.63,2.12-10.1,2.12-3.91,0-7.77-1.14-11.56-3.42-3.8-2.28-7.11-5.91-9.93-10.91l-30.29-54.39Zm260.21-16.94c0,57.11-26.05,85.65-78.16,85.65s-79.47-28.55-79.47-85.65v-82.07c0-8.68,2.66-15.31,7.98-19.87,5.32-4.56,11.56-6.84,18.73-6.84s13.73,2.28,19.05,6.84c5.32,4.56,7.98,11.19,7.98,19.87v90.21c0,16.07,8.36,24.1,25.08,24.1s25.08-8.03,25.08-24.1v-90.21c0-8.68,2.66-15.31,7.98-19.87,5.32-4.56,11.56-6.84,18.73-6.84s13.73,2.28,19.05,6.84c5.32,4.56,7.98,11.19,7.98,19.87v82.07Zm74.58,58.62c0,8.69-2.66,15.31-7.98,19.87-5.32,4.56-11.56,6.84-18.73,6.84s-13.73-2.28-19.05-6.84c-5.32-4.56-7.98-11.18-7.98-19.87v-140.69c0-8.68,2.66-15.31,7.98-19.87,5.32-4.56,11.67-6.84,19.05-6.84s13.4,2.28,18.73,6.84c5.32,4.56,7.98,11.19,7.98,19.87v140.69Zm116.26,0c0,8.69-2.66,15.31-7.98,19.87-5.32,4.56-11.67,6.84-19.05,6.84s-13.41-2.28-18.73-6.84c-5.32-4.56-7.98-11.18-7.98-19.87v-113.66h-18.89c-8.47,0-15.09-2.66-19.87-7.98-4.78-5.32-7.16-11.67-7.16-19.05s2.39-13.73,7.16-19.05c4.77-5.32,11.4-7.98,19.87-7.98h90.87c8.47,0,15.09,2.66,19.87,7.98,4.77,5.32,7.16,11.67,7.16,19.05s-2.39,13.73-7.16,19.05c-4.78,5.32-11.4,7.98-19.87,7.98h-18.24v113.66ZM197.6,309.58l-.21,73.67c-.09,30.65,31.02,51.54,59.36,39.85h0c28.34-11.69,35.67-48.44,14-70.11l-52.09-52.09c-7.76-7.76-21.02-2.29-21.05,8.68Z" style="fill: #e37a3b;"/>
</svg>