<svg id="Camada_1" data-name="Camada 1" xmlns="http://www.w3.org/2000/svg" viewBox="0 0 48 48">
  <defs>
    <style>
      .cls-1 {
        fill: #595959;
      }

      .cls-2 {
        fill: #fff;
      }
    </style>
  </defs>
  <g id="pinterest-icon">
    <path class="cls-1" d="M48,24A24,24,0,1,1,24,0,24,24,0,0,1,48,24Z"/>
    <path class="cls-2" d="M17.15,38.81a.25.25,0,0,0,.43.1,18.32,18.32,0,0,0,3.21-5.64C21,32.5,22,28.53,22,28.53a5.14,5.14,0,0,0,4.35,2.15c5.73,0,9.61-5.05,9.61-11.81C36,13.76,31.53,9,24.73,9,16.27,9,12,14.87,12,19.76c0,3,1.16,5.6,3.65,6.59a.62.62,0,0,0,.89-.43c.08-.31.28-1.07.36-1.39a.81.81,0,0,0-.25-1,4.86,4.86,0,0,1-1.18-3.38c0-4.35,3.37-8.25,8.77-8.25,4.78,0,7.41,2.83,7.41,6.6,0,5-2.27,9.17-5.65,9.17a2.7,2.7,0,0,1-2.81-3.32c.54-2.19,1.58-4.54,1.58-6.12a2.34,2.34,0,0,0-2.41-2.58c-1.9,0-3.43,1.9-3.43,4.46a6.42,6.42,0,0,0,.57,2.72l-2.29,9.39A18.77,18.77,0,0,0,17.15,38.81Z"/>
  </g>
</svg>
