<?xml version="1.0" encoding="utf-8"?>
<!-- Generator: Adobe Illustrator 26.3.1, SVG Export Plug-In . SVG Version: 6.00 Build 0)  -->
<svg version="1.1" id="iconSocialMedia" xmlns="http://www.w3.org/2000/svg" xmlns:xlink="http://www.w3.org/1999/xlink" x="0px"
	 y="0px" viewBox="0 0 48 48" style="enable-background:new 0 0 48 48;" xml:space="preserve">
<style type="text/css">
	.st0{fill:#F5F5F5;}
	.st1{fill:#6BC3E3;}
</style>
<g id="pinterest-icon">
	<path class="st0" d="M48,24c0,13.3-10.7,24-24,24S0,37.3,0,24S10.7,0,24,0S48,10.7,48,24z"/>
	<path id="white" class="st1" d="M17.1,38.8c0,0.1,0.2,0.2,0.3,0.2c0,0,0.1,0,0.1-0.1c1.4-1.7,2.5-3.6,3.2-5.6
		c0.2-0.8,1.2-4.7,1.2-4.7c1,1.4,2.6,2.2,4.4,2.1c5.7,0,9.6-5,9.6-11.8C36,13.8,31.5,9,24.7,9C16.3,9,12,14.9,12,19.8
		c0,3,1.2,5.6,3.6,6.6c0.3,0.2,0.7,0,0.8-0.3c0-0.1,0-0.1,0.1-0.2c0.1-0.3,0.3-1.1,0.4-1.4c0.2-0.4,0.1-0.8-0.2-1
		c-0.8-0.9-1.2-2.1-1.2-3.4c0-4.4,3.4-8.2,8.8-8.2c4.8,0,7.4,2.8,7.4,6.6c0,5-2.3,9.2-5.6,9.2c-1.5,0.1-2.8-1-2.9-2.5
		c0-0.3,0-0.5,0.1-0.8c0.5-2.2,1.6-4.5,1.6-6.1c0.1-1.3-0.8-2.4-2.1-2.6c-0.1,0-0.2,0-0.3,0c-1.9,0-3.4,1.9-3.4,4.5
		c0,0.9,0.2,1.9,0.6,2.7l-2.3,9.4C16.8,34.4,16.8,36.6,17.1,38.8z"/>
</g>
</svg>
