<?xml version="1.0" encoding="utf-8"?>
<!-- Generator: Adobe Illustrator 26.3.1, SVG Export Plug-In . SVG Version: 6.00 Build 0)  -->
<svg version="1.1" id="iconSocialMedia" xmlns="http://www.w3.org/2000/svg" xmlns:xlink="http://www.w3.org/1999/xlink" x="0px"
	 y="0px" viewBox="0 0 48 48" style="enable-background:new 0 0 48 48;" xml:space="preserve">
<style type="text/css">
	.st0{fill:#E47A3A;}
	.st1{fill:#FFFFFF;}
</style>
<g id="twitter-icon">
	<path class="st0" d="M48,24c0,13.3-10.7,24-24,24S0,37.3,0,24S10.7,0,24,0S48,10.7,48,24z"/>
	<path id="white" class="st1" d="M38.2,12.4c-1.2,0.7-2.5,1.2-3.9,1.5c-1.2-1.2-2.8-1.9-4.5-1.9c-3.4,0-6.1,2.7-6.1,6c0,0,0,0,0,0
		c0,0.5,0.1,0.9,0.2,1.4c-4.9-0.2-9.5-2.5-12.7-6.3c-0.5,0.9-0.8,2-0.8,3c0,2,1,3.9,2.7,5c-1,0-1.9-0.3-2.8-0.8v0.1
		c0,2.9,2.1,5.4,4.9,5.9c-0.5,0.1-1.1,0.2-1.6,0.2c-0.4,0-0.8,0-1.2-0.1c0.8,2.5,3.1,4.2,5.7,4.2c-2.2,1.7-4.9,2.6-7.6,2.6
		c-0.5,0-1,0-1.5,0c2.8,1.8,6.1,2.7,9.4,2.7C28,36.2,35.8,28.6,36,19.1c0-0.1,0-0.2,0-0.3c0-0.3,0-0.5,0-0.8c1.2-0.9,2.2-1.9,3-3.1
		c-1.1,0.5-2.3,0.8-3.5,0.9C36.8,15,37.7,13.9,38.2,12.4z"/>
</g>
</svg>
